<?xml version="1.0" encoding="utf-8"?>
<!-- Generator: Adobe Illustrator 17.0.0, SVG Export Plug-In . SVG Version: 6.00 Build 0)  -->
<!DOCTYPE svg PUBLIC "-//W3C//DTD SVG 1.1//EN" "http://www.w3.org/Graphics/SVG/1.1/DTD/svg11.dtd" [
	<!ENTITY ns_flows "http://ns.adobe.com/Flows/1.0/">
	<!ENTITY ns_extend "http://ns.adobe.com/Extensibility/1.0/">
	<!ENTITY ns_ai "http://ns.adobe.com/AdobeIllustrator/10.0/">
	<!ENTITY ns_graphs "http://ns.adobe.com/Graphs/1.0/">
]>
<svg version="1.1" id="Layer_1" xmlns:x="&ns_extend;" xmlns:i="&ns_ai;" xmlns:graph="&ns_graphs;"
	 xmlns="http://www.w3.org/2000/svg" xmlns:xlink="http://www.w3.org/1999/xlink" xmlns:a="http://ns.adobe.com/AdobeSVGViewerExtensions/3.0/"
	 x="0px" y="0px" width="1400px" height="980px" viewBox="0 0 1400 980" enable-background="new 0 0 1400 980" xml:space="preserve"
	>
<g>
	
		<rect x="784.238" y="422.872" transform="matrix(-0.9997 -0.0253 0.0253 -0.9997 1558.4435 1068.5891)" fill="#C5C4C6" width="3.492" height="203.12"/>
</g>
<g>
	<circle fill="#FF726D" cx="668.378" cy="695.35" r="9.928"/>
</g>
<g>
	<rect x="618.153" y="557.524" fill="#FF726D" width="9.344" height="114.465"/>
</g>
<g>
	<path fill="#FF726D" d="M668.379,696.85c-0.5,0-0.989-0.25-1.273-0.705c-5.541-8.865-21.317-22.684-42.069-24.412
		c-15.138-1.268-36.146,4.214-46.531,19.215c-0.472,0.682-1.405,0.853-2.087,0.38c-0.681-0.472-0.851-1.406-0.379-2.087
		c11.124-16.067,32.745-21.869,49.247-20.498c21.851,1.821,38.502,16.435,44.364,25.812c0.439,0.702,0.226,1.628-0.477,2.067
		C668.926,696.776,668.651,696.85,668.379,696.85z"/>
</g>
<g>
	<path fill="#FF726D" d="M562.5,390.5c-14.024,2.571-53.016,16.296-39,49s10.716,102.84,39.917,100.504
		c29.2-2.336,60.096-95.652,49.583-112.004S592.5,385,562.5,390.5z"/>
</g>
<g>
	<path fill="#79A1BE" d="M605.465,356.625c29.874-2.636,49.641,1.168,61.321,15.768s-9.052,98.113-9.052,98.113
		c-9.344,5.548-16.795,8.266-42.633,15.768c-28.604,8.306-49.857-0.416-48.765-6.424c7.008-38.544-7.008-93.441-5.256-103.369
		S585.609,358.377,605.465,356.625z"/>
</g>
<g>
	<path fill="#FFFFFF" d="M594.953,357.793c0,0,5.84,16.352,16.352,26.864c4.437,4.437,1.335,22.118,2.336,35.624
		c1.371,18.496,5.84,33.288,5.84,33.288l29.784-0.584c0,0,7.981-10.9,8.76-28.616c1.168-26.572-14.038-32.895-11.68-43.801
		c2.336-10.804-10.512-23.944-10.512-23.944s-9.928-1.168-16.936-1.168C611.889,355.457,594.953,357.793,594.953,357.793z"/>
</g>
<g>
	<path fill="#E9D3C6" d="M624.737,311.073c-5.686,4.788-18.688,38.544-18.688,43.217s10.804,16.352,18.396,15.768
		c7.592-0.584,10.205-7.791,10.512-10.249c0.438-3.504,4.147-4.693,9.928-5.519c8.176-1.168,10.804-9.344,12.556-16.936
		s3.504-14.016-1.168-21.608S635.834,301.729,624.737,311.073z"/>
</g>
<g>
	<path fill="#E9D3C6" d="M674.962,542.924c0,0,35.04,7.008,35.625,9.928c0.584,2.92-17.52,19.856-20.44,38.544
		c-2.143,13.715-10.57,61.905-16.995,74.753c-2.625,5.25,8.235,22.192,11.739,26.28c3.504,4.088,9.344,16.504,9.344-11.68
		c0-21.024,39.713-92.273,47.889-105.121c8.176-12.848,25.696-47.889,2.92-55.481S674.962,542.924,674.962,542.924z"/>
</g>
<g  a:adobe-blending-mode="multiply">
	<path fill="#E9D3C6"  a:adobe-blending-mode="normal" d="M674.962,542.924c0,0,33.044,11.414,35.625,9.928
		c38.544-22.192,23.36,35.624,31.536,22.776c8.176-12.848,25.696-47.889,2.92-55.481S674.962,542.924,674.962,542.924z"/>
</g>
<g>
	<path fill="#E9D3C6" d="M805.196,627.021c-11.68-13.432-30.302-108.876-33.288-123.81c-1.381-6.904-5.417-18.982-19.272-20.44
		c-22.192-2.336-54.455,2.92-55.481,2.92c-3.504,0-55.481,63.657-55.481,63.657c7.291,1.286,61.505-14.748,91.646-24.514
		c1.006-0.003,1.711,0.088,1.995,0.303c2.37,1.803,0.006,26.481,10.184,42.424c7.47,11.7,33.7,53.753,37.387,67.636
		c1.506,5.673,22.817,9.182,28.149,9.928C816.368,645.871,819.78,643.793,805.196,627.021z"/>
</g>
<g>
	<path fill="#2526AF" d="M566.337,479.851c0,0-9.344,43.801-0.584,63.657s95.193,5.256,105.705,1.752
		c9.419-3.14,28.032-59.569,28.032-59.569S670.356,473,650.5,473S566.337,479.851,566.337,479.851z"/>
</g>
<g>
	<polygon fill="#C5C4C6" points="407.1,376.468 436.875,376.468 443.491,416.553 398.829,416.553 	"/>
</g>
<g>
	<polygon fill="#C5C4C6" points="407.1,376.468 436.875,376.468 443.491,416.553 398.829,416.553 	"/>
</g>
<g>
	<ellipse fill="#002ED3" cx="639.138" cy="328.173" rx="1.039" ry="0.968"/>
</g>
<g>
	<path fill="#002ED3" d="M641.295,328.053c0,0-0.366-0.063-0.837-0.249c-0.247-0.008-0.451-0.11-0.721-0.1
		c-0.255-0.026-0.531-0.004-0.813,0.024c-0.577,0.087-1.248,0.207-1.773,0.202c-0.529-0.007-0.88-0.119-0.88-0.119
		s0.304-0.223,0.747-0.44c0.225-0.125,0.477-0.243,0.78-0.359c0.154-0.05,0.294-0.128,0.472-0.159
		c0.174-0.038,0.35-0.077,0.526-0.116c0.192-0.003,0.383-0.006,0.572-0.008c0.188-0.003,0.377,0.08,0.552,0.117
		c0.179,0.03,0.337,0.128,0.481,0.223c0.146,0.087,0.273,0.182,0.383,0.268C641.128,327.72,641.295,328.053,641.295,328.053z"/>
</g>
<g>
	<ellipse fill="#002ED3" cx="655.097" cy="328.897" rx="0.983" ry="0.916"/>
</g>
<g>
	<path fill="#002ED3" d="M657.138,328.784c0,0-0.352-0.053-0.801-0.223c-0.235-0.004-0.425-0.096-0.679-0.084
		c-0.238-0.022-0.497,0-0.761,0.026c-0.542,0.081-1.179,0.191-1.677,0.179c-0.503-0.013-0.836-0.127-0.836-0.127
		s0.286-0.22,0.704-0.431c0.212-0.121,0.449-0.236,0.736-0.348c0.146-0.048,0.277-0.124,0.447-0.153
		c0.165-0.037,0.332-0.074,0.5-0.111c0.183-0.002,0.365-0.005,0.545-0.007c0.18-0.003,0.359,0.078,0.527,0.114
		c0.171,0.029,0.322,0.124,0.458,0.216c0.139,0.084,0.259,0.176,0.363,0.259C656.985,328.461,657.138,328.784,657.138,328.784z"/>
</g>
<g>
	<path fill="#FF726D" d="M650.833,343.488c-1.634,1.582-4.302,1.014-5.639-0.41L650.833,343.488z"/>
</g>
<g>
	<path fill="#CA9A3E" d="M641.289,323.708c-0.038-0.426-1.191-0.665-2.574-0.533c-1.383,0.132-2.474,0.585-2.436,1.011
		c0.038,0.426,1.191,0.665,2.574,0.533C640.236,324.587,641.327,324.134,641.289,323.708z"/>
</g>
<g>
	<path fill="#CA9A3E" d="M658.137,324.981c0.067-0.423-0.992-0.936-2.366-1.147c-1.374-0.211-2.542-0.038-2.609,0.384
		c-0.067,0.423,0.992,0.936,2.366,1.147C656.902,325.576,658.07,325.404,658.137,324.981z"/>
</g>
<g>
	<path fill="#C5C4C6" d="M422.893,479.503c-0.039,0-0.078-0.002-0.117-0.007c-0.549-0.064-0.941-0.561-0.877-1.109
		c0.518-4.434,0.049-11.345-0.364-17.442c-0.261-3.852-0.507-7.49-0.508-10.321c-0.003-9.755-0.002-14.757-0.001-21.012
		l0.001-13.399c0-0.552,0.448-1,1-1s1,0.448,1,1l-0.001,13.4c-0.001,6.255-0.002,11.256,0.001,21.011
		c0.001,2.764,0.245,6.37,0.504,10.187c0.439,6.485,0.894,13.192,0.354,17.809C423.825,479.128,423.393,479.503,422.893,479.503z"/>
</g>
<g>
	<path fill="#C5C4C6" d="M598.605,593.751H470.719c-0.552,0-1-0.447-1-1s0.448-1,1-1h127.887c0.552,0,1,0.447,1,1
		S599.158,593.751,598.605,593.751z"/>
</g>
<g>
	<polygon fill="#C5C4C6" points="407.1,376.468 436.875,376.468 443.491,416.553 398.829,416.553 	"/>
</g>
<g>
	<path fill="#CA9A3E" d="M649.85,309.905c-5.84,5.256-13.342,8.009-20.35,10.345c-2.985,0.995-7.75,12.25-7,22.5
		c0.818,11.175-1.11,20.395-13.531,24.387c-16.352,5.256-19.32-5.56-28.441-4.73c-3.854,0.35-13.607,6.015-13.607,6.015
		S566,345,581.5,335.25c11.109-6.988,20.75-15.5,27.5-27.25c6.191-10.776,21.574-21.281,42.5-10.15c11.75,6.25,9.5,27.472,9.5,37.4
		s12.914,15.992,15.25,23c3.74,11.218-6.252,18.816-6.252,18.816s-10.22-13.432-20.732-16.936
		c-10.512-3.504-13.432-3.504-13.432-3.504s1.747-2.703,9.636-3.212c9.052-0.584,11.972-18.396,13.724-26.572
		C660.54,320.559,649.85,309.905,649.85,309.905z"/>
</g>
<g>
	<polygon fill="#C5C4C6" points="611.889,500.875 819.91,524.236 970,430.21 790.012,418.53 	"/>
</g>
<g>
	<path fill="#CA9A3E" d="M672.1,666.149c0,0-7.008,9.928-8.76,14.6c-1.752,4.672,7.592,10.512,14.6,15.768
		c7.008,5.256,19.856,9.344,29.2,9.344s12.264-2.92,4.672-7.008c-7.592-4.088-13.446-14.848-17.52-15.184
		c-7.067-0.584-11.739-2.336-14.016-6.424C677.571,672.389,672.1,666.149,672.1,666.149z"/>
</g>
<g>
	<path fill="#CA9A3E" d="M781.835,635.197c0,0,1.316,12.081,3.095,16.743s12.649,2.857,21.381,2.159s21.661-1.382,28.075-3.559
		c8.848-3.004,7.602-9.503-1.135-10.098c-8.603-0.586-20.119-9.502-23.183-6.797s-9.556,4.92-14.759,4.46
		C788.844,637.533,781.835,635.197,781.835,635.197z"/>
</g>
<g>
	<path fill="#79A1BE" d="M552.904,400.426c4.122,12.071,33.288,81.761,47.889,84.681c14.6,2.92,92.95-16.164,92.95-16.164
		l-2.533-17.749c0,0-66.871,1.057-71.543,0.473c-4.672-0.584-20.334-44.817-32.306-65.841c-5.246-9.212-13.501-19.518-22.192-15.476
		C557.948,373.707,549.194,389.56,552.904,400.426z"/>
</g>
<g>
	<path fill="#FFFFFF" d="M693.066,465.251l57.233,5.84l57.233-29.784c0,0-56.182-4.03-58.518-4.03
		C746.678,437.277,690.146,464.083,693.066,465.251z"/>
</g>
<g>
	<path fill="#79A1BE" d="M703.578,428.458c0,0,60.153,6.424,63.073,6.424s0,7.592-13.432,10.512
		c-13.432,2.92-52.983,9.498-67.161,4.38c-6.85-2.473-19.454-11.774-22.484-18.396c-5.622-12.286-9.808-71.421,0-61.613
		C676.13,382.322,703.578,428.458,703.578,428.458z"/>
</g>
<g>
	<path fill="#FF726D" d="M758.475,392.25c-2.721,4.535-8.176,78.841-8.176,78.841s55.481-27.448,57.233-29.784
		s16.352-67.745,16.352-67.745S760.227,389.33,758.475,392.25z"/>
</g>
<g>
	<path fill="#E9D3C6" d="M691.21,451.194c5.852-0.456,14.103-3.779,23.977-1.225c9.874,2.554,11.6,3.76,16.207,6.782
		s-7.083,3.349-12.39,5.569c-5.306,2.22-22.432,5.348-24.78,5.881C691.875,468.733,691.21,451.194,691.21,451.194z"/>
</g>
<g>
	<path fill="#FF726D" d="M570.425,541.172c-8.321,1.752-17.52,16.352-8.176,21.024s39.713,4.672,65.409,3.504
		s57.233-9.344,67.745-16.352C705.914,542.34,592.617,536.5,570.425,541.172z"/>
</g>
<g opacity="0.2">
	<path fill="#C5C4C6" d="M799.879,628.53L700,674c-29-16-101.12-12.639-120-6c-8.321,2.926-27,24-9,33
		c10.211,5.105,35.452,5.58,60,4l-34.519,17.56l237.54,26.675l171.388-107.368L799.879,628.53z"/>
</g>
<g>
	<circle fill="#FF726D" cx="576.514" cy="695.35" r="9.928"/>
</g>
<g>
	<path fill="#FF726D" d="M622.534,668.233c-0.4,0-0.799-0.159-1.095-0.474c-0.566-0.604-0.536-1.554,0.068-2.12
		c13.541-12.698,27.782-16.099,44.821-10.701c0.79,0.25,1.227,1.093,0.977,1.883c-0.25,0.789-1.095,1.225-1.883,0.977
		c-15.895-5.031-29.196-1.847-41.863,10.029C623.271,668.099,622.902,668.233,622.534,668.233z"/>
</g>
<g>
	<circle fill="#FF726D" cx="659.326" cy="661.477" r="7.422"/>
</g>
<g>
	<path fill="#FF726D" d="M622.201,670.323c-0.365,0-0.73-0.132-1.019-0.399c-12.737-11.8-26.059-14.907-41.923-9.777
		c-0.787,0.252-1.634-0.178-1.889-0.966c-0.255-0.789,0.178-1.635,0.966-1.89c17.004-5.498,31.268-2.183,44.885,10.432
		c0.607,0.563,0.644,1.513,0.081,2.12C623.006,670.162,622.604,670.323,622.201,670.323z"/>
</g>
<g>
	<circle fill="#FF726D" cx="585.378" cy="663.789" r="7.422"/>
</g>
<g>
	<g>
		<path fill="#71B98B" d="M876.153,416.076c-9.217-21.145,0.064-36.977,0.667-44.294c0.783-9.512-0.309-14.986,1.979-16.284
			c1.938-1.1,1.977,3.492,3.166,10.346c0.305,1.757,1.418,13.725-2.46,25.846c-3.591,11.223-2.809,23.307-2.809,25.11"/>
	</g>
	<g>
		<path fill="#71B98B" d="M873.295,417.048c-2.583-1.778-3.597-7.066-4.711-9.686c-1.754-4.125-1.151-8.648-1.162-12.99
			c-0.009-3.456-0.322-7.056-0.007-10.495c0.138-1.5,0.972-6.462,2.671-6.819c1.014,3.34,0.458,7.169,0.769,10.556
			c0.297,3.228,0.781,6.359,1.662,9.502c1.876,6.689,2.934,13.344,2.276,19.932c-0.424,0.083-0.712-0.062-1.107,0"/>
	</g>
	<g>
		<path fill="#71B98B" d="M877.995,417.048c4.308-6.232,5.4-14.101,7.833-22.961c1.617-5.886,3.635-15.235,3.525-21.32
			c-0.115-6.355-1.788-3.387-4.103,0.314c-3.608,5.768-5.324,12.157-7.646,18.325c-1.463,3.887-3.262,7.755-3.525,11.866"/>
	</g>
	<g>
		<path fill="#71B98B" d="M870.162,417.048c-0.696-0.068-3.808-7.707-4.545-9.385c-2.505-5.703-4.523-11.218-4.855-14.888
			c-0.616-6.817-1.19-10.138-1.174-17.104c0.008-3.446,0.088-7.949,1.725-11.063c1.067,0.626,1.526,3.64,1.836,4.875
			c0.471,1.877,0.946,3.795,1.467,5.575c1.016,3.473,6.284,39.046,6.838,42.465"/>
	</g>
	<g>
		<path fill="#71B98B" d="M881.52,416.72c1.708-2.419,4.191-5.027,5.618-7.581c1.641-2.938,4.831-11.252,5.74-14.395
			c0.94-3.249,2.429-11.295,1.89-14.078c-2.058,1.264-3.019,4.419-4.327,6.331c-1.356,1.983-9.833,15.309-9.652,29.767"/>
	</g>
	<g>
		<polygon fill="#2526AF" points="884.2,435.857 867.838,435.857 864.202,413.781 888.745,413.781 		"/>
	</g>
</g>
<g>
	<path fill="#FFFFFF" d="M665.656,435.821c0,0-0.076-0.721-0.134-2.027c-0.061-1.283-0.148-3.115-0.253-5.314
		c-0.105-2.195-0.273-4.752-0.481-7.49c-0.232-2.735-0.498-5.653-0.879-8.557c-0.172-1.455-0.387-2.903-0.61-4.327
		c-0.197-1.429-0.486-2.818-0.72-4.172c-0.247-1.351-0.557-2.642-0.813-3.875c-0.288-1.225-0.603-2.373-0.872-3.439
		c-0.288-1.06-0.611-2.015-0.867-2.871c-0.245-0.86-0.536-1.583-0.758-2.185c-0.448-1.202-0.704-1.89-0.704-1.89
		s0.271,0.682,0.745,1.874c0.235,0.597,0.542,1.315,0.805,2.17c0.274,0.851,0.618,1.801,0.929,2.857
		c0.291,1.061,0.632,2.206,0.947,3.428c0.283,1.229,0.621,2.518,0.898,3.867c0.264,1.351,0.583,2.739,0.811,4.167
		c0.253,1.424,0.501,2.872,0.704,4.327c0.444,2.905,0.773,5.825,1.064,8.564c0.267,2.741,0.49,5.303,0.642,7.5
		c0.151,2.193,0.277,4.021,0.365,5.301c0.082,1.257,0.175,1.994,0.175,1.994L665.656,435.821z"/>
</g>
<g>
	<path fill="#FFFFFF" d="M619.174,451.755c0,0-0.127-0.88-0.45-2.37c-0.321-1.5-0.882-3.628-1.7-6.142
		c-1.62-5.037-4.362-11.57-7.29-18.017c-2.909-6.456-5.967-12.86-7.811-17.855c-0.917-2.492-1.529-4.65-1.588-6.211
		c-0.038-0.777,0.102-1.393,0.301-1.759c0.204-0.366,0.407-0.486,0.396-0.494c0.011,0.008-0.189,0.133-0.386,0.5
		c-0.191,0.367-0.319,0.98-0.268,1.751c0.086,1.55,0.733,3.688,1.692,6.158c1.927,4.949,5.093,11.292,8.118,17.7
		c3.043,6.4,5.909,12.902,7.636,17.959c0.871,2.524,1.479,4.673,1.833,6.198c0.361,1.534,0.502,2.406,0.502,2.406L619.174,451.755z"
		/>
</g>
<g>
	<path fill="#FFFFFF" d="M591.177,478.366c0,0-0.202-0.326-0.581-0.937c-0.383-0.606-0.935-1.507-1.612-2.676
		c-1.367-2.325-3.246-5.669-5.423-9.727c-4.366-8.107-9.965-19.026-15.422-30.014c-2.73-5.493-5.429-11.002-7.93-16.181
		c-1.251-2.587-2.468-5.092-3.491-7.525c-1.038-2.426-1.923-4.76-2.653-6.943c-1.459-4.366-2.26-8.151-2.389-10.837
		c-0.072-1.341,0.041-2.406,0.264-3.092c0.112-0.343,0.255-0.583,0.367-0.73c0.12-0.141,0.193-0.204,0.193-0.204
		s-0.073,0.064-0.191,0.206c-0.111,0.148-0.251,0.389-0.359,0.732c-0.215,0.686-0.318,1.749-0.232,3.086
		c0.156,2.679,0.993,6.448,2.493,10.79c0.75,2.172,1.657,4.492,2.717,6.902c1.046,2.417,2.284,4.902,3.562,7.478
		c2.553,5.152,5.307,10.631,8.093,16.095c5.567,10.929,11.276,21.786,15.718,29.835c2.214,4.027,4.125,7.35,5.502,9.637
		c0.68,1.146,1.238,2.038,1.629,2.643c0.385,0.607,0.59,0.931,0.59,0.931L591.177,478.366z"/>
</g>
<g>
	<path fill="#FF726D" d="M649.25,328.65c0.056,0.4,0.093,0.8,0.136,1.201c0.049,0.4,0.121,0.791,0.174,1.184
		c0.044,0.394,0.157,0.78,0.237,1.168c0.067,0.392,0.177,0.772,0.291,1.152l0.156,0.573c0.051,0.179,0.132,0.368,0.21,0.522
		c0.171,0.34,0.379,0.677,0.588,1.026c0.209,0.348,0.404,0.722,0.532,1.133c0.127,0.41,0.15,0.867,0.045,1.286l-0.022,0.088
		l-0.07,0.026c-0.306,0.114-0.615,0.212-0.93,0.278c-0.314,0.067-0.632,0.108-0.95,0.13c-0.635,0.044-1.274,0.041-1.897-0.067
		c0.631,0.023,1.259-0.022,1.875-0.123c0.309-0.047,0.611-0.124,0.91-0.199c0.299-0.08,0.585-0.189,0.864-0.311l-0.091,0.114
		c0.109-0.752-0.256-1.443-0.678-2.107c-0.207-0.339-0.436-0.677-0.621-1.057c-0.098-0.208-0.171-0.39-0.229-0.598l-0.152-0.592
		c-0.099-0.395-0.195-0.791-0.246-1.195c-0.049-0.404-0.128-0.802-0.139-1.211c-0.018-0.406-0.066-0.812-0.048-1.214
		C649.211,329.455,649.221,329.053,649.25,328.65z"/>
</g>
<g>
	<rect x="215.001" y="452.302" fill="#C5C4C6" width="249" height="164"/>
</g>
<g>
	<rect x="221.609" y="501.592" fill="#FFFFFF" width="236.988" height="1.5"/>
</g>
<g>
	<rect x="221.609" y="560.589" fill="#FFFFFF" width="236.988" height="1.5"/>
</g>
<g>
	
		<rect x="940.238" y="435.872" transform="matrix(-0.9997 -0.0253 0.0253 -0.9997 1870.0645 1098.5331)" fill="#C5C4C6" width="3.492" height="203.12"/>
</g>
<g>
	
		<rect x="633.105" y="501.198" transform="matrix(-0.9997 -0.0253 0.0253 -0.9997 1255.9448 1242.0516)" fill="#C5C4C6" width="5.455" height="223.76"/>
</g>
<g>
	
		<rect x="798.131" y="518.709" transform="matrix(-0.9997 -0.0253 0.0253 -0.9997 1585.5011 1281.245)" fill="#C5C4C6" width="5.455" height="223.76"/>
</g>
<g>
	<circle fill="#FFFFFF" cx="427.5" cy="530.5" r="4.5"/>
</g>
<g>
	<circle fill="#FFFFFF" cx="252" cy="530.5" r="4.5"/>
</g>
<g>
	<circle fill="#FFFFFF" cx="427.5" cy="477" r="4.5"/>
</g>
<g>
	<circle fill="#FFFFFF" cx="252" cy="477" r="4.5"/>
</g>
<g>
	<circle fill="#FFFFFF" cx="427.5" cy="591" r="4.5"/>
</g>
<g>
	<circle fill="#FFFFFF" cx="252" cy="591" r="4.5"/>
</g>
<g>
	<rect x="246" y="440.5" fill="#C5C4C6" width="67" height="9"/>
</g>
<g>
	<rect x="243" y="428.5" fill="#C5C4C6" width="67" height="9"/>
</g>
<g>
	
		<rect x="283" y="423.5" transform="matrix(0.8226 0.5686 -0.5686 0.8226 299.5138 -104.0411)" fill="#C5C4C6" width="67" height="9"/>
</g>
<g>
	<path fill="#C5C4C6" d="M384,429v16c0,2.761-2.239,5-5,5h-12c-2.761,0-5-2.239-5-5v-16H384z"/>
</g>
<g>
	<rect x="870.253" y="194.674" fill="#C5C4C6" width="132.753" height="97.495"/>
</g>
<g>
	<rect x="877.027" y="202.483" fill="#FFFFFF" width="119.207" height="81.879"/>
</g>
<g>
	<rect x="1035.643" y="257.671" fill="#C5C4C6" width="83.737" height="61.497"/>
</g>
<g>
	<rect x="1041.684" y="265.24" fill="#FFFFFF" width="71.653" height="46.359"/>
</g>
<g>
</g>
<g>
</g>
<g>
</g>
<g>
</g>
<g>
</g>
<g>
</g>
</svg>
