<?xml version="1.0" encoding="utf-8"?>
<!-- Generator: Adobe Illustrator 17.0.0, SVG Export Plug-In . SVG Version: 6.00 Build 0)  -->
<!DOCTYPE svg PUBLIC "-//W3C//DTD SVG 1.1//EN" "http://www.w3.org/Graphics/SVG/1.1/DTD/svg11.dtd" [
	<!ENTITY ns_flows "http://ns.adobe.com/Flows/1.0/">
	<!ENTITY ns_extend "http://ns.adobe.com/Extensibility/1.0/">
	<!ENTITY ns_ai "http://ns.adobe.com/AdobeIllustrator/10.0/">
	<!ENTITY ns_graphs "http://ns.adobe.com/Graphs/1.0/">
]>
<svg version="1.1" id="Layer_1" xmlns:x="&ns_extend;" xmlns:i="&ns_ai;" xmlns:graph="&ns_graphs;"
	 xmlns="http://www.w3.org/2000/svg" xmlns:xlink="http://www.w3.org/1999/xlink" xmlns:a="http://ns.adobe.com/AdobeSVGViewerExtensions/3.0/"
	 x="0px" y="0px" width="1400px" height="980px" viewBox="0 0 1400 980" enable-background="new 0 0 1400 980" xml:space="preserve"
	>
<g>
	<path fill="#E2DAD3" d="M474.036,569.572c16.779-24.086,141.281-14.673,231.035-14.673s237.528-11.365,256.006,5.688
		s2.695,155.365,2.695,181.891s-81.345,26.402-247.653,26.402s-251.271,3.914-251.271-22.613S458.198,592.308,474.036,569.572z"/>
</g>
<g>
	<path fill="#E2DAD3" d="M466.916,553.094c16.779,24.455,148.401,0.338,238.155,0.338s225.158,16.976,243.637-0.338
		c18.479-17.314,15.064-163.183,15.064-190.116s-97.673-40.399-263.981-40.399s-234.943,9.619-234.943,36.552
		C464.848,386.063,451.077,530.008,466.916,553.094z"/>
</g>
<g>
	<path fill="#002ED3" d="M658.293,332.773c5.678-13.762,6.002-42.062,21.723-44.679c9.558-1.591,21.147-13.58,39.971-9.273
		c20.854,4.772,26.226,18.37,34.758,34.352c11.099,20.792,12.836,17.837,20.854,30.98c11.169,18.307,8.43,38.088-4.428,48.572
		c-10.726,8.745-25.646,9.312-57.592,9.312c-33.889,0-59.878-1.766-64.791-11.64C639.664,372.061,653.087,345.391,658.293,332.773z"
		/>
</g>
<g  a:adobe-blending-mode="multiply">
	<path fill="#E2DAD3"  a:adobe-blending-mode="normal" d="M787.016,609.323c43.895-12.608,72.066-33.737,88.565-33.737
		c28.538,0,62.95-5.458,56.997-6c-32.998-3-138.299-15.697-221.941-15.697s-144.041,18.697-220.537,18.697
		c-7.132,0,19.777,3.807,44.998,6c34.498,3,58.497,25.499,103.393,31.214c-2.235,14.805-16.127,16.692-14.386,30.812
		c2.077,16.845,10.309,7.66,15.078,1.486c4.629-5.993,20.958-17.203,28.893-19.419c37.152-10.375,75.59-3.983,82.322,1.524
		c12.209,9.989,23.198,16.227,30.094,25.962c4.377,6.179,11.823,11.452,11.994-3.462c0.149-12.981-10.452-13.847-5.714-35.482
		C786.919,610.558,786.985,609.932,787.016,609.323z"/>
</g>
<g>
	<path fill="#FF726D" d="M770.572,527.137c29.46-1.677,49.958-11.318,58.394-20.456c14.758-15.985-25.908-78.509-42.634-100.462
		c-11.887-15.602-20.661-20.999-76.886-20.999c-57.903,0-57.903,5.727-72.66,20.044c-29.129,28.259-59.934,85.432-45.258,101.417
		c8.951,9.75,32.624,19.28,63.998,20.763c0,0-22.431,19.263-10.869,27.675c15.742,11.454,103.198,11.252,121.015,4.772
		C786.784,552.213,770.572,527.137,770.572,527.137z"/>
</g>
<g  a:adobe-blending-mode="multiply">
	<path fill="#FF726D"  a:adobe-blending-mode="normal" d="M649.576,421.491c0,7.636-11.806,37.225-15.742,45.815
		s152.498,9.545,155.45,5.727c2.952-3.818-11.61-38.18-11.61-45.815s0.787,26.726-14.955,28.635
		c-15.742,1.909-84.612,3.818-101.338,2.863C644.656,457.761,649.576,421.491,649.576,421.491z"/>
</g>
<g>
	<path fill="#F3BE3E" d="M580.826,536.581c-15.631,7.816-27.066,43.165,11.899,57.334c23.799,8.654,115.027,14.082,140.63,19.472
		c20.554,4.327,29.208-55.17,11.899-65.988c-10.728-6.705-56.193-27.654-98.441-29.208
		C620.899,517.238,595.97,529.008,580.826,536.581z"/>
</g>
<g opacity="0.5"  a:adobe-blending-mode="multiply">
	<path fill="#F3BE3E"  a:adobe-blending-mode="normal" d="M640.323,535.499c-7.572,0-19.472,11.899-28.126,14.063
		c-8.654,2.164,10.818,8.654,37.862,10.818c21.566,1.725,53.968,9.736,46.516,12.981c-7.452,3.245-19.472,34.617-10.818,34.617
		c8.654,0,48.68,4.327,54.089,4.327s11.136-14.063,9.736-22.717c-1.4-8.654,25.963-42.189-10.818-42.189
		C701.984,547.399,640.323,535.499,640.323,535.499z"/>
</g>
<g>
	<path fill="#FFFFFF" d="M748.182,582.015c-1.049,6.491-16.787,28.126-22.033,29.208c-5.246,1.082,22.567,3.245,31.822,10.818
		c12.209,9.99,18.655,18.39,25.551,28.126c4.377,6.179,11.823,11.452,11.995-3.462c0.149-12.981-5.909-16.01-1.171-37.646
		c1.785-8.152-5.246-11.899-15.738-15.145C768.116,590.669,748.182,582.015,748.182,582.015z"/>
</g>
<g>
	<path fill="#F3BE3E" d="M840.109,536.581c15.352,7.185,26.196,43.165-11.517,57.334c-23.034,8.654-113.148,11.899-138.276,15.145
		s-34.666-22.629-15.497-28.126c39.605-11.359,72.126-52.599,113.707-60.579C803.039,517.569,828.551,531.172,840.109,536.581z"/>
</g>
<g>
	<path fill="#FFFFFF" d="M678.185,578.77c1.082,6.491,10.818,28.126,16.227,29.208s-25.962,8.005-33.535,11.25
		s-20.68,14.902-24.881,21.203c-4.327,6.491-11.899,16.227-15.145-0.433c-2.874-14.751,9.736-16.876,9.736-34.184
		c0-8.449,5.409-11.899,16.227-15.145S678.185,578.77,678.185,578.77z"/>
</g>
<g opacity="0.5"  a:adobe-blending-mode="multiply">
	<path fill="#F3BE3E"  a:adobe-blending-mode="normal" d="M692.464,574.984c2.685-1.343,60.97-14.166,94.381-20.696
		c24.181-4.726,29.59-7.971,16.609-11.216c-12.981-3.245-29.208-2.164-48.68,0C735.302,545.235,692.464,574.984,692.464,574.984z"/>
</g>
<g>
	<path fill="#FFFFFF" d="M638.041,556.337c-7.976-1.07-13.087-41.897-16.523-58.364c-2.313-11.09-9.322-47.988-9.322-57.082
		c0-7.583,12.429-5.44,67.623-5.44c31.396,0,62.8-0.17,94.295,0c28.658,0.155,32.801,0.465,32.801,11.783
		c0,4.23-3.766,24.854-9.322,50.74c-5.004,23.315-7.447,52.077-11.966,54.935c-9.084,5.744-52.353,5.769-87.774,5.769
		C673.883,558.677,649.867,557.924,638.041,556.337z"/>
</g>
<g>
	<path fill="#FF726D" d="M805.466,445.581c-0.015,0-0.029-0.001-0.044-0.004c-18.661-3.363-39.252-2.958-59.169-2.567
		c-6.391,0.125-12.435,0.244-18.421,0.244c-1.104-0.003-2.193-0.001-3.287-0.001c-35.236,0-70.935,0.497-105.494,0.979l-5.815,0.081
		c-0.001,0-0.002,0-0.003,0c-0.137,0-0.248-0.11-0.25-0.247c-0.002-0.138,0.108-0.251,0.247-0.253l5.815-0.081
		c34.559-0.481,70.263-0.979,105.5-0.979c1.097,0,2.189-0.002,3.287,0.001c5.981,0,12.022-0.119,18.411-0.244
		c19.938-0.391,40.557-0.796,59.267,2.575c0.137,0.024,0.227,0.155,0.202,0.291C805.69,445.496,805.585,445.581,805.466,445.581z"/>
</g>
<g>
	<path fill="#E2DAD3" d="M1175.797,715.759h-52.01c-0.489,0-0.907-0.354-0.986-0.838l-11.558-70.176
		c-0.048-0.289,0.034-0.585,0.224-0.81c0.19-0.224,0.469-0.353,0.763-0.353h78.015c0.301,0,0.585,0.135,0.775,0.368
		c0.189,0.233,0.265,0.539,0.204,0.833l-14.447,70.176C1176.681,715.425,1176.271,715.759,1175.797,715.759z M1124.636,713.759
		h50.346l14.036-68.176h-75.61L1124.636,713.759z"/>
</g>
<g>
	<path fill="#E2DAD3" d="M1145.62,645.681c-0.455,0-0.871-0.044-1.258-0.084c-0.578-0.062-1.078-0.114-1.639-0.025
		c-0.338,0.049-0.659-0.068-0.877-0.297c-0.333,0.35-0.878,0.417-1.29,0.132c-7.292-5.021-11.274-17.186-14.475-26.961
		c-1.126-3.441-2.19-6.691-3.257-9.199c-5.223-12.28-4.872-25.539-4.534-38.362c0.086-3.271,0.176-6.655,0.167-9.942
		c-0.011-4.125-0.143-8.392-0.27-12.519c-0.267-8.683-0.543-17.661,0.248-26.289c0.022-0.242,2.461-24.321,10.644-26.041
		c0.506-0.107,1.013,0.192,1.163,0.688c2.452,8.078,2.459,16.896,2.465,25.424c0.003,4.788,0.006,9.312,0.411,13.713
		c1.227,13.331,3.164,24.411,6.098,34.871c7.951,28.356,10.63,51.837,8.429,73.895c-0.044,0.438-0.369,0.797-0.802,0.882
		C1146.403,645.65,1145.998,645.681,1145.62,645.681z M1128.625,498.384c-4.455,2.503-7.51,16.458-8.196,23.934
		c-0.781,8.505-0.506,17.421-0.241,26.044c0.128,4.141,0.26,8.422,0.271,12.574c0.009,3.316-0.081,6.715-0.168,10.001
		c-0.332,12.609-0.677,25.647,4.375,37.526c1.101,2.588,2.178,5.877,3.317,9.36c3.106,9.489,6.973,21.299,13.709,25.937
		c0.057,0.039,0.108,0.083,0.155,0.131c0.146-0.152,0.342-0.26,0.566-0.296c0.819-0.127,1.531-0.055,2.158,0.013
		c0.405,0.043,0.779,0.083,1.162,0.072c2.031-21.568-0.657-44.588-8.442-72.352c-2.967-10.579-4.926-21.773-6.164-35.228
		c-0.413-4.492-0.416-9.272-0.419-13.896C1130.702,514.188,1130.696,505.909,1128.625,498.384z"/>
</g>
<g>
	<path fill="#E2DAD3" d="M1158.459,645.583c-0.196,0-0.395-0.058-0.567-0.178c-0.454-0.313-0.568-0.937-0.254-1.391
		c12.088-17.486,17.177-38.191,23.069-62.166c1.765-7.181,3.59-14.605,5.684-22.227c6.524-23.757,13.356-56.818,12.967-78.363
		c-0.204-11.252-1.772-12.556-2.249-12.688c-1.735-0.495-6.327,6.801-9.982,12.665l-1.058,1.693
		c-9.992,15.972-16.139,33.568-22.083,50.583c-1.933,5.532-3.932,11.253-6.033,16.835c-0.939,2.495-1.916,4.988-2.894,7.483
		c-4.551,11.615-9.257,23.625-10.048,35.997c-0.036,0.551-0.509,0.951-1.062,0.935c-0.552-0.035-0.97-0.511-0.935-1.062
		c0.812-12.685,5.575-24.842,10.182-36.6c0.975-2.487,1.948-4.972,2.885-7.459c2.093-5.559,4.087-11.268,6.016-16.789
		c5.981-17.12,12.165-34.822,22.276-50.985l1.056-1.691c5.909-9.478,9.125-14.388,12.213-13.535
		c2.464,0.681,3.54,4.905,3.716,14.579c0.394,21.756-6.478,55.038-13.039,78.928c-2.086,7.596-3.907,15.007-5.669,22.175
		c-5.939,24.166-11.069,45.037-23.367,62.825C1159.089,645.433,1158.776,645.583,1158.459,645.583z"/>
</g>
<g>
	<path fill="#E2DAD3" d="M1129.564,645.583c-0.529,0-0.971-0.415-0.998-0.95c-0.187-3.72-6.641-15.515-11.354-24.127
		c-2.377-4.343-4.429-8.094-5.328-10.14c-10.858-24.723-16.91-43.305-17.988-55.229c-0.558-6.177-1.096-11.47-1.616-16.589
		c-1.543-15.178-2.762-27.166-2.72-46.596c0.03-14.063,0.559-30.01,6.479-41.272c0.127-0.242,0.348-0.421,0.61-0.496
		c0.263-0.076,0.546-0.039,0.78,0.099c3.63,2.13,5.34,9.997,6.588,15.741c0.238,1.097,0.451,2.077,0.647,2.86l0.301,1.199
		c1.621,6.469,3.297,13.158,5.102,19.327c1.176,4.021,2.486,8.029,3.754,11.905c2.863,8.757,5.567,17.028,6.979,25.744
		c0.088,0.546-0.282,1.059-0.827,1.147c-0.558,0.09-1.059-0.282-1.147-0.827c-1.387-8.562-4.067-16.763-6.905-25.443
		c-1.272-3.891-2.588-7.914-3.773-11.965c-1.815-6.207-3.496-12.915-5.122-19.402l-0.3-1.199c-0.201-0.8-0.419-1.801-0.662-2.921
		c-0.932-4.286-2.427-11.166-4.805-13.742c-5.64,11.761-5.677,28.889-5.699,39.25c-0.042,19.326,1.172,31.27,2.709,46.39
		c0.521,5.125,1.06,10.424,1.619,16.611c1.059,11.709,7.057,30.081,17.828,54.604c0.863,1.967,2.896,5.682,5.25,9.984
		c5.074,9.271,11.388,20.81,11.598,24.987c0.027,0.552-0.397,1.021-0.949,1.049C1129.599,645.583,1129.581,645.583,1129.564,645.583
		z"/>
</g>
<g>
	<path fill="#E2DAD3" d="M1135.346,552.418c-0.021,0-0.04-0.001-0.061-0.002c-0.552-0.033-0.972-0.506-0.938-1.058
		c0.726-12.153,4.775-23.675,9.063-35.872c4.233-12.042,8.61-24.494,9.719-37.957c0.991-12.025,1.169-22.44,1.312-30.81
		c0.283-16.601,0.454-26.621,6.489-30.047c1.453-0.824,2.779-0.952,3.947-0.381c3.584,1.753,4.763,9.841,6.717,23.241
		c0.695,4.77,1.483,10.175,2.494,16.002c1.798,10.368,2.709,25.123,2.709,43.856c0,0.553-0.447,1-1,1s-1-0.447-1-1
		c0-18.619-0.901-33.26-2.68-43.515c-1.015-5.854-1.806-11.273-2.503-16.055c-1.665-11.422-2.98-20.443-5.616-21.732
		c-0.347-0.17-0.943-0.32-2.081,0.324c-5.042,2.862-5.205,12.453-5.477,28.342c-0.144,8.398-0.322,18.85-1.317,30.939
		c-1.13,13.72-5.551,26.295-9.826,38.456c-4.24,12.062-8.245,23.454-8.954,35.328
		C1136.312,552.009,1135.871,552.418,1135.346,552.418z"/>
</g>
<g>
	<path fill="#E2DAD3" d="M1171.462,644.373c-0.199,0-0.4-0.06-0.576-0.183c-0.451-0.319-0.559-0.943-0.24-1.395
		c2.418-3.423,5.182-6.86,8.107-10.498c4.593-5.712,9.342-11.617,12.559-17.377c6.071-10.87,17.751-41.358,21.087-52.893
		c3.315-11.459,8.388-38.692,7.178-49.917c-4.192,3.226-7.071,8.796-9.863,14.198c-1.504,2.908-2.924,5.655-4.517,7.983
		c-1.586,2.319-3.081,4.762-4.664,7.347c-3.312,5.408-6.736,11.001-11.023,15.321c-0.389,0.394-1.023,0.395-1.414,0.006
		c-0.393-0.389-0.395-1.022-0.006-1.414c4.123-4.155,7.485-9.646,10.737-14.958c1.526-2.492,3.104-5.069,4.72-7.431
		c1.523-2.227,2.916-4.921,4.39-7.773c3.193-6.178,6.495-12.565,11.872-15.867c0.28-0.172,0.627-0.194,0.926-0.062
		c0.301,0.132,0.517,0.403,0.579,0.725c1.999,10.326-3.468,40.214-6.992,52.399c-3.36,11.614-15.135,42.34-21.263,53.311
		c-3.299,5.907-8.102,11.88-12.746,17.655c-2.906,3.613-5.65,7.026-8.031,10.399
		C1172.085,644.226,1171.776,644.373,1171.462,644.373z"/>
</g>
<g>
	<path fill="#E2DAD3" d="M1010.863,695.908c-0.41,0-0.82-0.004-1.23-0.013c-0.553-0.013-0.99-0.47-0.979-1.021
		s0.479-0.988,1.021-0.979c5.775,0.127,11.359-0.67,17.276-1.513c6.902-0.985,14.037-2.002,21.454-1.409
		c19.868,1.589,40.351,1.54,60.155,1.493c4.112-0.011,8.227-0.021,12.337-0.016c0.553,0.001,1,0.448,0.999,1.001
		c-0.001,0.552-0.448,0.999-1,0.999h-0.001c-4.114-0.006-8.219,0.005-12.33,0.016c-19.847,0.047-40.37,0.097-60.32-1.499
		c-7.188-0.574-14.217,0.427-21.012,1.395C1021.895,695.123,1016.385,695.908,1010.863,695.908z"/>
</g>
<g  a:adobe-blending-mode="multiply">
	<path fill="#E2DAD3"  a:adobe-blending-mode="normal" d="M1175.797,715.759h-52.01c-0.489,0-0.907-0.354-0.986-0.838
		l-11.558-70.176c-0.048-0.289,0.034-0.585,0.224-0.81c0.19-0.224,0.469-0.353,0.763-0.353h78.015c0.301,0,0.585,0.135,0.775,0.368
		c0.189,0.233,0.265,0.539,0.204,0.833l-14.447,70.176C1176.681,715.425,1176.271,715.759,1175.797,715.759z M1124.636,713.759
		h50.346l14.036-68.176h-75.61L1124.636,713.759z"/>
</g>
<g>
	<path fill="#E2DAD3" d="M379.136,333.688c-0.007,0-0.013-0.001-0.02,0H244.104c-0.15,0-0.292-0.068-0.388-0.184
		c-0.095-0.117-0.132-0.27-0.102-0.417l25.002-121.174c0.048-0.232,0.252-0.399,0.49-0.399h90.008c0.245,0,0.454,0.177,0.493,0.418
		l19.979,121.04c0.031,0.065,0.049,0.139,0.049,0.216C379.636,333.465,379.412,333.688,379.136,333.688z M244.718,332.688h133.809
		L358.69,212.515h-89.177L244.718,332.688z"/>
</g>
<g  a:adobe-blending-mode="multiply">
	<path fill="#E2DAD3"  a:adobe-blending-mode="normal" d="M379.136,333.688c-0.007,0-0.013-0.001-0.02,0H244.104
		c-0.15,0-0.292-0.068-0.388-0.184c-0.095-0.117-0.132-0.27-0.102-0.417l25.002-121.174c0.048-0.232,0.252-0.399,0.49-0.399h90.008
		c0.245,0,0.454,0.177,0.493,0.418l19.979,121.04c0.031,0.065,0.049,0.139,0.049,0.216
		C379.636,333.465,379.412,333.688,379.136,333.688z M244.718,332.688h133.809L358.69,212.515h-89.177L244.718,332.688z"/>
</g>
<g  a:adobe-blending-mode="multiply">
	<path fill="#E2DAD3"  a:adobe-blending-mode="normal" d="M1145.62,645.681c-0.455,0-0.871-0.044-1.258-0.084
		c-0.578-0.062-1.078-0.114-1.639-0.025c-0.338,0.049-0.659-0.068-0.877-0.297c-0.333,0.35-0.878,0.417-1.29,0.132
		c-7.292-5.021-11.274-17.186-14.475-26.961c-1.126-3.441-2.19-6.691-3.257-9.199c-5.223-12.28-4.872-25.539-4.534-38.362
		c0.086-3.271,0.176-6.655,0.167-9.942c-0.011-4.125-0.143-8.392-0.27-12.519c-0.267-8.683-0.543-17.661,0.248-26.289
		c0.022-0.242,2.461-24.321,10.644-26.041c0.506-0.107,1.013,0.192,1.163,0.688c2.452,8.078,2.459,16.896,2.465,25.424
		c0.003,4.788,0.006,9.312,0.411,13.713c1.227,13.331,3.164,24.411,6.098,34.871c7.951,28.356,10.63,51.837,8.429,73.895
		c-0.044,0.438-0.369,0.797-0.802,0.882C1146.403,645.65,1145.998,645.681,1145.62,645.681z M1128.625,498.384
		c-4.455,2.503-7.51,16.458-8.196,23.934c-0.781,8.505-0.506,17.421-0.241,26.044c0.128,4.141,0.26,8.422,0.271,12.574
		c0.009,3.316-0.081,6.715-0.168,10.001c-0.332,12.609-0.677,25.647,4.375,37.526c1.101,2.588,2.178,5.877,3.317,9.36
		c3.106,9.489,6.973,21.299,13.709,25.937c0.057,0.039,0.108,0.083,0.155,0.131c0.146-0.152,0.342-0.26,0.566-0.296
		c0.819-0.127,1.531-0.055,2.158,0.013c0.405,0.043,0.779,0.083,1.162,0.072c2.031-21.568-0.657-44.588-8.442-72.352
		c-2.967-10.579-4.926-21.773-6.164-35.228c-0.413-4.492-0.416-9.272-0.419-13.896
		C1130.702,514.188,1130.696,505.909,1128.625,498.384z"/>
</g>
<g  a:adobe-blending-mode="multiply">
	<path fill="#E2DAD3"  a:adobe-blending-mode="normal" d="M1158.459,645.583c-0.196,0-0.395-0.058-0.567-0.178
		c-0.454-0.313-0.568-0.937-0.254-1.391c12.088-17.486,17.177-38.191,23.069-62.166c1.765-7.181,3.59-14.605,5.684-22.227
		c6.524-23.757,13.356-56.818,12.967-78.363c-0.204-11.252-1.772-12.556-2.249-12.688c-1.735-0.495-6.327,6.801-9.982,12.665
		l-1.058,1.693c-9.992,15.972-16.139,33.568-22.083,50.583c-1.933,5.532-3.932,11.253-6.033,16.835
		c-0.939,2.495-1.916,4.988-2.894,7.483c-4.551,11.615-9.257,23.625-10.048,35.997c-0.036,0.551-0.509,0.951-1.062,0.935
		c-0.552-0.035-0.97-0.511-0.935-1.062c0.812-12.685,5.575-24.842,10.182-36.6c0.975-2.487,1.948-4.972,2.885-7.459
		c2.093-5.559,4.087-11.268,6.016-16.789c5.981-17.12,12.165-34.822,22.276-50.985l1.056-1.691
		c5.909-9.478,9.125-14.388,12.213-13.535c2.464,0.681,3.54,4.905,3.716,14.579c0.394,21.756-6.478,55.038-13.039,78.928
		c-2.086,7.596-3.907,15.007-5.669,22.175c-5.939,24.166-11.069,45.037-23.367,62.825
		C1159.089,645.433,1158.776,645.583,1158.459,645.583z"/>
</g>
<g  a:adobe-blending-mode="multiply">
	<path fill="#E2DAD3"  a:adobe-blending-mode="normal" d="M1129.564,645.583c-0.529,0-0.971-0.415-0.998-0.95
		c-0.187-3.72-6.641-15.515-11.354-24.127c-2.377-4.343-4.429-8.094-5.328-10.14c-10.858-24.723-16.91-43.305-17.988-55.229
		c-0.558-6.177-1.096-11.47-1.616-16.589c-1.543-15.178-2.762-27.166-2.72-46.596c0.03-14.063,0.559-30.01,6.479-41.272
		c0.127-0.242,0.348-0.421,0.61-0.496c0.263-0.076,0.546-0.039,0.78,0.099c3.63,2.13,5.34,9.997,6.588,15.741
		c0.238,1.097,0.451,2.077,0.647,2.86l0.301,1.199c1.621,6.469,3.297,13.158,5.102,19.327c1.176,4.021,2.486,8.029,3.754,11.905
		c2.863,8.757,5.567,17.028,6.979,25.744c0.088,0.546-0.282,1.059-0.827,1.147c-0.558,0.09-1.059-0.282-1.147-0.827
		c-1.387-8.562-4.067-16.763-6.905-25.443c-1.272-3.891-2.588-7.914-3.773-11.965c-1.815-6.207-3.496-12.915-5.122-19.402
		l-0.3-1.199c-0.201-0.8-0.419-1.801-0.662-2.921c-0.932-4.286-2.427-11.166-4.805-13.742c-5.64,11.761-5.677,28.889-5.699,39.25
		c-0.042,19.326,1.172,31.27,2.709,46.39c0.521,5.125,1.06,10.424,1.619,16.611c1.059,11.709,7.057,30.081,17.828,54.604
		c0.863,1.967,2.896,5.682,5.25,9.984c5.074,9.271,11.388,20.81,11.598,24.987c0.027,0.552-0.397,1.021-0.949,1.049
		C1129.599,645.583,1129.581,645.583,1129.564,645.583z"/>
</g>
<g  a:adobe-blending-mode="multiply">
	<path fill="#E2DAD3"  a:adobe-blending-mode="normal" d="M1135.346,552.418c-0.021,0-0.04-0.001-0.061-0.002
		c-0.552-0.033-0.972-0.506-0.938-1.058c0.726-12.153,4.775-23.675,9.063-35.872c4.233-12.042,8.61-24.494,9.719-37.957
		c0.991-12.025,1.169-22.44,1.312-30.81c0.283-16.601,0.454-26.621,6.489-30.047c1.453-0.824,2.779-0.952,3.947-0.381
		c3.584,1.753,4.763,9.841,6.717,23.241c0.695,4.77,1.483,10.175,2.494,16.002c1.798,10.368,2.709,25.123,2.709,43.856
		c0,0.553-0.447,1-1,1s-1-0.447-1-1c0-18.619-0.901-33.26-2.68-43.515c-1.015-5.854-1.806-11.273-2.503-16.055
		c-1.665-11.422-2.98-20.443-5.616-21.732c-0.347-0.17-0.943-0.32-2.081,0.324c-5.042,2.862-5.205,12.453-5.477,28.342
		c-0.144,8.398-0.322,18.85-1.317,30.939c-1.13,13.72-5.551,26.295-9.826,38.456c-4.24,12.062-8.245,23.454-8.954,35.328
		C1136.312,552.009,1135.871,552.418,1135.346,552.418z"/>
</g>
<g  a:adobe-blending-mode="multiply">
	<path fill="#E2DAD3"  a:adobe-blending-mode="normal" d="M1171.462,644.373c-0.199,0-0.4-0.06-0.576-0.183
		c-0.451-0.319-0.559-0.943-0.24-1.395c2.418-3.423,5.182-6.86,8.107-10.498c4.593-5.712,9.342-11.617,12.559-17.377
		c6.071-10.87,17.751-41.358,21.087-52.893c3.315-11.459,8.388-38.692,7.178-49.917c-4.192,3.226-7.071,8.796-9.863,14.198
		c-1.504,2.908-2.924,5.655-4.517,7.983c-1.586,2.319-3.081,4.762-4.664,7.347c-3.312,5.408-6.736,11.001-11.023,15.321
		c-0.389,0.394-1.023,0.395-1.414,0.006c-0.393-0.389-0.395-1.022-0.006-1.414c4.123-4.155,7.485-9.646,10.737-14.958
		c1.526-2.492,3.104-5.069,4.72-7.431c1.523-2.227,2.916-4.921,4.39-7.773c3.193-6.178,6.495-12.565,11.872-15.867
		c0.28-0.172,0.627-0.194,0.926-0.062c0.301,0.132,0.517,0.403,0.579,0.725c1.999,10.326-3.468,40.214-6.992,52.399
		c-3.36,11.614-15.135,42.34-21.263,53.311c-3.299,5.907-8.102,11.88-12.746,17.655c-2.906,3.613-5.65,7.026-8.031,10.399
		C1172.085,644.226,1171.776,644.373,1171.462,644.373z"/>
</g>
<g  a:adobe-blending-mode="multiply">
	<path fill="#E2DAD3"  a:adobe-blending-mode="normal" d="M1010.863,695.908c-0.41,0-0.82-0.004-1.23-0.013
		c-0.553-0.013-0.99-0.47-0.979-1.021s0.479-0.988,1.021-0.979c5.775,0.127,11.359-0.67,17.276-1.513
		c6.902-0.985,14.037-2.002,21.454-1.409c19.868,1.589,40.351,1.54,60.155,1.493c4.112-0.011,8.227-0.021,12.337-0.016
		c0.553,0.001,1,0.448,0.999,1.001c-0.001,0.552-0.448,0.999-1,0.999h-0.001c-4.114-0.006-8.219,0.005-12.33,0.016
		c-19.847,0.047-40.37,0.097-60.32-1.499c-7.188-0.574-14.217,0.427-21.012,1.395
		C1021.895,695.123,1016.385,695.908,1010.863,695.908z"/>
</g>
<g>
	<path fill="#FFFFFF" d="M684.832,385.513c-0.025,9.987-1.608,29.526,7.882,37.058c6.67,5.294,16.516,3.311,18.389-6.697
		c1.879,6.29,9.576,12.142,16.172,9.638c13.945-5.294,13.287-28.151,13.642-39.705c0,0-22.056-0.227-29.407-0.303
		C703.855,385.426,684.832,385.513,684.832,385.513z"/>
</g>
<g>
	<path fill="#F3D9CD" d="M739.539,323.921c0.575,9.119,4.474,15.861,2.824,32.666c-2.172,22.129-13.903,32.455-30.413,33.298
		c-12.552,0.641-31.933-12.223-32.368-37.935c-0.405-23.974,1.738-31.402,1.738-31.402c3.136-2.441,13.903-2.529,25.199,2.529
		C721.277,329.686,730.758,330.314,739.539,323.921z"/>
</g>
<g>
	<ellipse fill="#002ED3" cx="728.234" cy="345.532" rx="2.048" ry="1.325"/>
</g>
<g>
	<path fill="#F3D9CD" d="M692.811,375.97c1.33,14.156,4.575,39.617,20.434,39.617s17.714-20.261,18.22-38.245
		C731.713,368.542,691.923,366.514,692.811,375.97z"/>
</g>
<g>
	<ellipse fill="#002ED3" cx="694.863" cy="345.357" rx="2.048" ry="1.325"/>
</g>
<g>
	<path fill="#002ED3" d="M687.92,344.69c0,0,0.188,0.117,0.51,0.037c0.322-0.07,0.757-0.279,1.299-0.516
		c0.539-0.241,1.19-0.507,1.921-0.713c0.728-0.215,1.536-0.351,2.35-0.412c0.407-0.025,0.815-0.023,1.216-0.014
		c0.401,0.01,0.792,0.062,1.169,0.108c0.753,0.107,1.438,0.285,2.009,0.471c0.572,0.185,1.03,0.384,1.345,0.534
		c0.31,0.157,0.488,0.247,0.488,0.247s-0.197-0.032-0.541-0.087c-0.342-0.059-0.829-0.138-1.408-0.221
		c-0.581-0.076-1.253-0.159-1.973-0.203c-0.36-0.023-0.731-0.023-1.107-0.033c-0.376,0-0.758,0.009-1.138,0.04
		c-1.526,0.08-3.015,0.449-4.165,0.738c-0.574,0.142-1.08,0.247-1.451,0.227C688.053,344.874,687.916,344.676,687.92,344.69z"/>
</g>
<g>
	<path fill="#002ED3" d="M721.748,344.428c0,0,0.178,0.13,0.506,0.073c0.326-0.047,0.776-0.225,1.334-0.422
		c0.556-0.202,1.225-0.421,1.97-0.574c0.742-0.162,1.559-0.241,2.375-0.244c0.408,0.004,0.815,0.035,1.214,0.073
		c0.399,0.038,0.785,0.118,1.158,0.191c0.743,0.16,1.412,0.387,1.968,0.613c0.557,0.225,0.999,0.456,1.301,0.628
		c0.298,0.179,0.468,0.281,0.468,0.281s-0.194-0.046-0.533-0.125c-0.336-0.083-0.816-0.196-1.387-0.321
		c-0.573-0.117-1.238-0.248-1.952-0.343c-0.357-0.049-0.728-0.075-1.102-0.111c-0.375-0.027-0.757-0.045-1.138-0.041
		c-1.528-0.029-3.041,0.233-4.21,0.44c-0.583,0.101-1.096,0.17-1.464,0.123C721.866,344.62,721.745,344.414,721.748,344.428z"/>
</g>
<g>
	<path fill="#002ED3" d="M716.512,369.232c0,0-0.107,0.128-0.293,0.353c-0.094,0.11-0.241,0.222-0.405,0.359
		c-0.165,0.141-0.368,0.252-0.591,0.392c-0.453,0.248-1.016,0.493-1.647,0.65c-0.627,0.181-1.319,0.259-2.012,0.299
		c-0.348,0.002-0.695,0.004-1.036-0.027c-0.342-0.008-0.675-0.086-0.996-0.136c-0.639-0.136-1.223-0.329-1.682-0.579
		c-0.233-0.118-0.438-0.235-0.603-0.37c-0.169-0.125-0.316-0.229-0.415-0.345c-0.206-0.217-0.312-0.342-0.312-0.342
		s0.15,0.075,0.414,0.205c0.121,0.075,0.295,0.124,0.476,0.199c0.179,0.08,0.397,0.135,0.629,0.203
		c0.463,0.134,1.019,0.224,1.614,0.293c0.599,0.05,1.24,0.086,1.882,0.054c1.283-0.039,2.561-0.256,3.485-0.545
		c0.22-0.088,0.448-0.142,0.62-0.224c0.172-0.085,0.342-0.136,0.469-0.212C716.365,369.314,716.512,369.232,716.512,369.232z"/>
</g>
<g>
	<path fill="#002ED3" d="M711.969,343.998c0,0,0.044,0.311,0.1,0.856c0.046,0.545,0.144,1.322,0.179,2.264
		c0.025,0.47,0.03,0.983,0.02,1.525c-0.022,0.543-0.048,1.119-0.135,1.712c-0.09,0.585-0.193,1.22-0.396,1.814
		c-0.206,0.624-0.459,1.202-0.721,1.778c-0.538,1.135-1.091,2.239-1.245,3.31c-0.07,0.533-0.045,1.051,0.091,1.527
		c0.084,0.365,0.516,0.612,0.938,0.753c0.867,0.274,1.687,0.339,2.241,0.389c0.562,0.055,0.883,0.087,0.883,0.087
		s-0.321,0.035-0.884,0.077c-0.564,0.018-1.375,0.119-2.378-0.088c-0.25-0.057-0.514-0.138-0.777-0.288
		c-0.131-0.077-0.26-0.171-0.374-0.296c-0.112-0.122-0.217-0.299-0.265-0.439c-0.207-0.544-0.297-1.173-0.237-1.801
		c0.106-1.271,0.703-2.451,1.213-3.579c0.267-0.559,0.523-1.128,0.712-1.671c0.198-0.571,0.332-1.126,0.443-1.691
		c0.216-1.121,0.306-2.2,0.373-3.128c0.062-0.933,0.114-1.71,0.15-2.255C711.936,344.311,711.969,343.998,711.969,343.998z"/>
</g>
<g>
	<ellipse fill="#002ED3" cx="727.38" cy="335.86" rx="7.681" ry="1.392"/>
</g>
<g>
	<ellipse fill="#002ED3" cx="693.327" cy="335.979" rx="7.681" ry="1.099"/>
</g>
<g>
	<path fill="#E2DAD3" d="M964.91,501c-34,0-34,86-34,114s5.394,117.906,5.394,135.888c0,17.981,77.32,17.981,77.32-1.798
		s-3.596-102.493-3.596-149.245S1007.901,501,964.91,501z"/>
	<path fill="#FFFFFF" d="M973.59,765.157c-0.002,0-0.004,0-0.007,0c-26.442-0.002-38.278-7.168-38.278-14.27
		c0-7.976-1.094-30.754-2.252-54.87c-1.473-30.679-3.143-65.45-3.143-81.018c0-28.443,0-115,35-115
		c19.806,0,32.77,10.661,39.635,32.592c5.981,19.113,6.482,43.704,6.482,67.253c0,28.312,1.309,69.479,2.36,102.558
		c0.69,21.721,1.236,38.877,1.236,46.688c0,5.149-4.595,9.396-13.287,12.28C993.978,763.812,984.123,765.157,973.59,765.157z
		 M964.91,502c-33,0-33,85.052-33,113c0,15.52,1.668,50.266,3.141,80.921c1.209,25.189,2.254,46.943,2.254,54.967
		c0,8.054,18.251,12.269,36.278,12.27c0.002,0,0.005,0,0.007,0c10.325,0,19.955-1.309,27.117-3.686
		c5.437-1.804,11.917-5.069,11.917-10.382c0-7.779-0.572-25.78-1.235-46.624c-1.052-33.093-2.361-74.278-2.361-102.621
		c0-23.395-0.493-47.812-6.392-66.655C996.066,512.202,983.727,502,964.91,502z"/>
</g>
<g>
	<path fill="#E2DAD3" d="M451.407,501c37.022,0,37.022,86,37.022,114s-5.874,117.906-5.874,135.888
		c0,17.981-81.025,12.587-81.025-7.193s0.749-97.099,0.749-143.85S404.595,501,451.407,501z"/>
	<path fill="#FFFFFF" d="M451.889,762.84c-11.901,0-24.644-1.796-34.085-4.804c-11.301-3.601-17.274-8.56-17.274-14.341
		c0-7.799,0.113-24.132,0.257-44.81c0.219-31.507,0.491-70.718,0.491-99.041c0-39.76,0-99.845,50.128-99.845
		c38.022,0,38.022,86.557,38.022,115c0,15.57-1.818,50.342-3.422,81.021c-1.261,24.115-2.452,46.893-2.452,54.866
		C483.555,758.372,471.717,762.84,451.889,762.84z M451.407,502c-20.546,0-34.014,10.21-41.172,31.213
		c-6.419,18.834-6.956,43.244-6.956,66.632c0,28.33-0.272,67.545-0.491,99.055c-0.144,20.675-0.257,37.004-0.257,44.796
		c0,4.756,5.64,9.172,15.881,12.435c9.256,2.949,21.771,4.71,33.478,4.71c18.022,0,29.667-3.906,29.667-9.952
		c0-8.025,1.137-29.78,2.455-54.971c1.603-30.654,3.419-65.399,3.419-80.917C487.429,587.052,487.429,502,451.407,502z"/>
</g>
<g  a:adobe-blending-mode="multiply">
	<circle fill="#E2DAD3"  a:adobe-blending-mode="normal" cx="970.497" cy="558" r="6"/>
</g>
<g  a:adobe-blending-mode="multiply">
	<circle fill="#E2DAD3"  a:adobe-blending-mode="normal" cx="443.503" cy="558" r="6"/>
</g>
<g>
	<path fill="#E2DAD3" d="M314.61,727.827c-0.011,0-0.021,0-0.032-0.001c-0.552-0.018-0.985-0.479-0.968-1.031
		c0.915-28.615,0.098-72.644-0.623-111.488c-0.45-24.278-0.875-47.209-0.877-64.928c-0.006-61.735-0.004-93.391-0.002-132.978
		l0.002-84.803c0-0.552,0.448-1,1-1s1,0.448,1,1l-0.002,84.803c-0.002,39.586-0.003,71.243,0.002,132.978
		c0.002,17.7,0.427,40.622,0.877,64.891c0.721,38.869,1.538,82.924,0.622,111.59C315.592,727.4,315.148,727.827,314.61,727.827z"/>
</g>
<g>
	<path fill="#E2DAD3" d="M315.709,737.576c-20.844,0-42.998-3.768-42.998-10.749c0-6.982,22.154-10.75,42.998-10.75
		s42.998,3.768,42.998,10.75C358.708,733.809,336.554,737.576,315.709,737.576z M315.709,718.077
		c-24.161,0-40.998,4.611-40.998,8.75c0,4.138,16.837,8.749,40.998,8.749s40.998-4.611,40.998-8.749
		C356.708,722.688,339.87,718.077,315.709,718.077z"/>
</g>
<g>
	<path fill="#E2DAD3" d="M398.605,701.08H224.614c-0.552,0-1-0.447-1-1s0.448-1,1-1h173.991c0.552,0,1,0.447,1,1
		S399.158,701.08,398.605,701.08z"/>
</g>
<g  a:adobe-blending-mode="multiply">
	<path fill="#E2DAD3"  a:adobe-blending-mode="normal" d="M379.136,333.688c-0.007,0-0.013-0.001-0.02,0H244.104
		c-0.15,0-0.292-0.068-0.388-0.184c-0.095-0.117-0.132-0.27-0.102-0.417l25.002-121.174c0.048-0.232,0.252-0.399,0.49-0.399h90.008
		c0.245,0,0.454,0.177,0.493,0.418l19.979,121.04c0.031,0.065,0.049,0.139,0.049,0.216
		C379.636,333.465,379.412,333.688,379.136,333.688z M244.718,332.688h133.809L358.69,212.515h-89.177L244.718,332.688z"/>
</g>
<g  a:adobe-blending-mode="multiply">
	<path fill="#E2DAD3"  a:adobe-blending-mode="normal" d="M379.136,333.688c-0.007,0-0.013-0.001-0.02,0H244.104
		c-0.15,0-0.292-0.068-0.388-0.184c-0.095-0.117-0.132-0.27-0.102-0.417l25.002-121.174c0.048-0.232,0.252-0.399,0.49-0.399h90.008
		c0.245,0,0.454,0.177,0.493,0.418l19.979,121.04c0.031,0.065,0.049,0.139,0.049,0.216
		C379.636,333.465,379.412,333.688,379.136,333.688z M244.718,332.688h133.809L358.69,212.515h-89.177L244.718,332.688z"/>
</g>
<g  a:adobe-blending-mode="multiply">
	<path fill="#E2DAD3"  a:adobe-blending-mode="normal" d="M314.61,727.827c-0.011,0-0.021,0-0.032-0.001
		c-0.552-0.018-0.985-0.479-0.968-1.031c0.915-28.615,0.098-72.644-0.623-111.488c-0.45-24.278-0.875-47.209-0.877-64.928
		c-0.006-61.735-0.004-93.391-0.002-132.978l0.002-84.803c0-0.552,0.448-1,1-1s1,0.448,1,1l-0.002,84.803
		c-0.002,39.586-0.003,71.243,0.002,132.978c0.002,17.7,0.427,40.622,0.877,64.891c0.721,38.869,1.538,82.924,0.622,111.59
		C315.592,727.4,315.148,727.827,314.61,727.827z"/>
</g>
<g  a:adobe-blending-mode="multiply">
	<path fill="#E2DAD3"  a:adobe-blending-mode="normal" d="M315.709,737.576c-20.844,0-42.998-3.768-42.998-10.749
		c0-6.982,22.154-10.75,42.998-10.75s42.998,3.768,42.998,10.75C358.708,733.809,336.554,737.576,315.709,737.576z M315.709,718.077
		c-24.161,0-40.998,4.611-40.998,8.75c0,4.138,16.837,8.749,40.998,8.749s40.998-4.611,40.998-8.749
		C356.708,722.688,339.87,718.077,315.709,718.077z"/>
</g>
<g  a:adobe-blending-mode="multiply">
	<path fill="#E2DAD3"  a:adobe-blending-mode="normal" d="M398.605,701.08H224.614c-0.552,0-1-0.447-1-1s0.448-1,1-1h173.991
		c0.552,0,1,0.447,1,1S399.158,701.08,398.605,701.08z"/>
</g>
<g>
</g>
<g>
</g>
<g>
</g>
<g>
</g>
<g>
</g>
<g>
</g>
</svg>
