<?xml version="1.0" encoding="utf-8"?>
<!-- Generator: Adobe Illustrator 17.0.0, SVG Export Plug-In . SVG Version: 6.00 Build 0)  -->
<!DOCTYPE svg PUBLIC "-//W3C//DTD SVG 1.1//EN" "http://www.w3.org/Graphics/SVG/1.1/DTD/svg11.dtd">
<svg version="1.1" xmlns="http://www.w3.org/2000/svg" xmlns:xlink="http://www.w3.org/1999/xlink" x="0px" y="0px" width="1400px"
	 height="980px" viewBox="0 0 1400 980" enable-background="new 0 0 1400 980" xml:space="preserve">
<g id="Layer_1">
	<g>
		<rect fill="#F3E3DF" width="1400" height="980"/>
	</g>
</g>
<g id="Layer_2">
	<g>
		<rect x="175.596" y="696.751" fill="#ABD4D1" width="285.341" height="281.183"/>
	</g>
	<g>
		<rect x="460.938" y="696.751" fill="#FFFEF7" width="36.234" height="281.183"/>
	</g>
	<g>
		<rect x="1229.397" y="696.751" fill="#FFFEF7" width="16.607" height="281.183"/>
	</g>
	<g>
		<rect x="1172.027" y="591.069" fill="#FFFEF7" width="16.607" height="386.865"/>
	</g>
	<g>
		<rect x="189.357" y="710.339" fill="#FFFEF7" width="257.82" height="86.995"/>
	</g>
	<g>
		<rect x="189.357" y="809.982" fill="#FFFEF7" width="257.82" height="86.995"/>
	</g>
	<g>
		<rect x="189.357" y="908.115" fill="#FFFEF7" width="257.82" height="69.819"/>
	</g>
	<g>
		<polygon fill="#ABD4D1" points="1255.063,682.661 162.009,682.661 213.803,576.609 1195.369,576.609 		"/>
	</g>
	<g>
		<rect x="691.749" y="536.648" fill="#B07757" width="86.071" height="55.331"/>
	</g>
	<g>
		<path fill="#BD3E30" d="M341.508,519.704c0,0,30.318-5.306,57.604-5.306s55.396,5.194,55.396,5.194s-34.932,12.239-60.702,12.239
			S341.508,519.704,341.508,519.704z"/>
	</g>
	<g>
		<g>
			<g>
				<path fill="#B07757" d="M320.258,576.044c6.629-15.299,13.602-30.537,22.91-44.425c9.14-13.638,20.525-23.598,35.78-29.716
					c8.053-3.23,17.302-5.597,23.611,1.899c3.307,3.929,5.175,9.176,6.906,13.923c2.68,7.347,4.805,14.902,7.025,22.396
					c0.46,1.552,2.889,0.891,2.426-0.669c-3.539-11.939-6.235-26.814-14.136-36.866c-5.847-7.438-14.167-7.194-22.548-4.54
					c-34.894,11.049-50.645,45.566-64.148,76.729C317.447,576.247,319.614,577.529,320.258,576.044L320.258,576.044z"/>
			</g>
		</g>
		<g>
			<g>
				<path fill="#B07757" d="M346.028,510.103c8.317-16.58,29.338-31.025,48.353-24.76c20.934,6.898,21.338,35.255,27.415,52.503
					c0.535,1.52,2.967,0.866,2.426-0.669c-6.732-19.106-6.964-45.759-29.173-54.261c-19.625-7.512-42.732,9.045-51.195,25.916
					C343.13,510.279,345.301,511.553,346.028,510.103L346.028,510.103z"/>
			</g>
		</g>
		<g>
			<g>
				<path fill="#B07757" d="M282.783,529.513c3.257-16.826,13.128-32.132,24.531-44.624c12.362-13.542,29.016-25.286,47.717-27.06
					c20.2-1.917,37.221,10.976,45.338,28.73c8.233,18.009,8.482,39.1,8.498,58.532c0.001,1.623,2.518,1.623,2.516,0
					c-0.017-20.543-0.704-42.002-9.388-60.997c-8.029-17.564-25.178-29.326-44.653-28.916c-18.95,0.398-36.193,12.177-49.119,25.115
					c-13.043,13.056-24.317,30.21-27.867,48.551C280.05,530.429,282.475,531.105,282.783,529.513L282.783,529.513z"/>
			</g>
		</g>
		<g>
			<g>
				<path fill="#B07757" d="M293.857,582.565c10.562-31.84,19.546-67.349,42.19-93.133c11.829-13.469,30.576-20.682,45.31-6.83
					c13.914,13.081,18.213,35.981,19.93,54.152c0.151,1.601,2.669,1.616,2.516,0c-1.685-17.824-5.792-37.286-16.943-51.755
					c-9.898-12.843-26.127-16.106-40.142-7.974c-14.597,8.469-23.897,25.217-31.116,39.838
					c-7.986,16.173-13.985,33.285-19.502,50.429c-1.566,4.865-3.061,9.754-4.67,14.605
					C290.918,583.441,293.348,584.097,293.857,582.565L293.857,582.565z"/>
			</g>
		</g>
		<g>
			<path fill="#B07757" d="M295.793,577.053c0,0-16.137,2.617-28.785,16.137c-12.648,13.52-11.776,29.221-11.776,29.221
				s22.679,1.308,34.891-15.265C297.446,597.209,295.793,577.053,295.793,577.053z"/>
		</g>
		<g>
			<path fill="#B07757" d="M285.985,519.321c0,0-12.403,9.087-17.794,24.191c-5.391,15.104,1.262,25.638,1.262,25.638
				s19.314-9.301,23.19-26.333C294.968,532.605,285.985,519.321,285.985,519.321z"/>
		</g>
		<g>
			<path fill="#FFFFFF" d="M260.163,616.382c0,0,0.574-0.424,1.595-1.139c0.519-0.345,1.135-0.789,1.796-1.332
				c0.665-0.547,1.446-1.09,2.229-1.805c0.788-0.703,1.672-1.416,2.535-2.261c0.438-0.413,0.887-0.838,1.347-1.272
				c0.445-0.449,0.901-0.907,1.363-1.374c0.947-0.909,1.832-1.944,2.786-2.94c0.935-1.015,1.856-2.075,2.767-3.143
				c1.841-2.123,3.591-4.327,5.246-6.391c1.636-2.087,3.163-4.035,4.472-5.704c1.309-1.676,2.432-3.058,3.234-4.013
				c0.81-0.95,1.291-1.477,1.291-1.477s-0.35,0.62-0.962,1.706c-0.616,1.082-1.494,2.626-2.614,4.444
				c-1.103,1.827-2.464,3.917-4.001,6.106c-0.789,1.08-1.568,2.225-2.454,3.319c-0.854,1.117-1.771,2.216-2.684,3.319
				c-1.891,2.15-3.838,4.262-5.856,6.05c-0.502,0.449-0.976,0.91-1.478,1.322c-0.507,0.405-1.002,0.802-1.485,1.187
				c-0.94,0.799-1.935,1.427-2.816,2.043c-0.862,0.637-1.768,1.088-2.516,1.535c-0.382,0.214-0.729,0.432-1.066,0.597
				c-0.341,0.157-0.654,0.3-0.937,0.43C260.821,616.104,260.163,616.382,260.163,616.382z"/>
		</g>
		<g>
			<path fill="#FFFFFF" d="M270.399,566.605c0,0,0.092-0.139,0.265-0.401c0.187-0.252,0.411-0.658,0.685-1.155
				c0.54-1.013,1.169-2.529,1.754-4.401c0.585-1.874,1.12-4.108,1.644-6.518c0.248-1.211,0.503-2.461,0.763-3.732
				c0.247-1.278,0.498-2.576,0.748-3.875c0.261-1.301,0.522-2.602,0.779-3.882c0.246-1.285,0.546-2.54,0.818-3.761
				c0.556-2.437,1.171-4.704,1.832-6.612c0.315-0.957,0.668-1.819,0.999-2.571c0.33-0.754,0.676-1.387,0.976-1.896
				c0.314-0.503,0.579-0.883,0.789-1.121c0.199-0.242,0.306-0.371,0.306-0.371s-0.074,0.15-0.214,0.43
				c-0.152,0.27-0.305,0.705-0.519,1.235c-0.195,0.543-0.399,1.21-0.611,1.981c-0.201,0.776-0.407,1.654-0.61,2.62
				c-0.398,1.934-0.793,4.206-1.208,6.653c-0.22,1.22-0.402,2.493-0.646,3.776c-0.235,1.287-0.474,2.595-0.713,3.903
				c-0.531,2.609-1.081,5.225-1.77,7.646c-0.32,1.215-0.703,2.374-1.08,3.468c-0.372,1.096-0.788,2.113-1.206,3.037
				c-0.831,1.853-1.751,3.294-2.499,4.214c-0.376,0.468-0.697,0.793-0.931,1.002C270.52,566.49,270.399,566.605,270.399,566.605z"/>
		</g>
		<g>
			<g>
				<path fill="#B07757" d="M269.024,501.459c9.277-6.952,16.995-16.157,25.579-23.927c11.89-10.763,25.541-21.708,41.489-25.425
					c17.738-4.133,33.221,7.597,39.591,23.655c6.62,16.691,5.162,35.83,5.14,53.412c-0.002,1.623,2.514,1.623,2.516,0
					c0.023-18.379,1.231-37.793-5.682-55.222c-5.963-15.035-20.197-26.285-36.775-25.108c-15.816,1.123-30.076,11.709-41.821,21.479
					c-10.881,9.051-20.003,20.491-31.307,28.962C266.472,500.247,267.724,502.433,269.024,501.459L269.024,501.459z"/>
			</g>
		</g>
		<g>
			<path fill="#B07757" d="M271.823,496.435c0,0-15.372,0.333-28.449,9.616c-13.077,9.284-13.667,21.728-13.667,21.728
				s21.157,3.455,34.098-8.277C271.565,512.468,271.823,496.435,271.823,496.435z"/>
		</g>
		<g>
			<path fill="#FFFFFF" d="M231.941,526.236c0,0,0.155-0.061,0.447-0.176c0.298-0.099,0.714-0.304,1.223-0.554
				c1.023-0.521,2.407-1.401,3.96-2.6c1.554-1.2,3.273-2.723,5.085-4.397c0.897-0.85,1.824-1.728,2.766-2.62
				c0.935-0.906,1.885-1.826,2.835-2.745c0.96-0.916,1.919-1.832,2.864-2.734c0.938-0.912,1.904-1.768,2.826-2.612
				c1.853-1.678,3.657-3.182,5.292-4.367c0.807-0.603,1.59-1.107,2.293-1.534c0.703-0.429,1.349-0.749,1.887-0.994
				c0.546-0.232,0.981-0.391,1.289-0.466c0.302-0.084,0.463-0.128,0.463-0.128s-0.147,0.08-0.422,0.23
				c-0.28,0.134-0.654,0.402-1.134,0.714c-0.471,0.333-1.021,0.763-1.637,1.273c-0.609,0.521-1.282,1.122-2.002,1.797
				c-1.435,1.356-3.062,2.991-4.805,4.758c-0.88,0.874-1.759,1.812-2.695,2.723c-0.931,0.92-1.877,1.854-2.822,2.789
				c-1.931,1.833-3.882,3.661-5.834,5.249c-0.959,0.812-1.938,1.542-2.873,2.222c-0.933,0.684-1.857,1.279-2.73,1.796
				c-1.743,1.042-3.323,1.695-4.464,2.02c-0.576,0.168-1.026,0.251-1.337,0.287C232.106,526.212,231.941,526.236,231.941,526.236z"
				/>
		</g>
		<g>
			<path fill="#B07757" d="M325.762,560.895c0,0-12.686,6.172-19.681,21.317c-6.995,15.145-2.238,29.049-2.238,29.049
				s19.11-4.193,24.959-21.978C332.31,578.619,325.762,560.895,325.762,560.895z"/>
		</g>
		<g>
			<path fill="#FFFFFF" d="M307.992,608.596c0,0,0.259-0.634,0.742-1.728c0.231-0.549,0.567-1.2,0.851-1.974
				c0.303-0.763,0.644-1.623,1.016-2.561c0.337-0.953,0.703-1.985,1.09-3.077c0.348-1.103,0.715-2.267,1.095-3.471
				c0.715-2.421,1.444-5.015,2.102-7.64c0.344-1.312,0.687-2.624,1.026-3.915c0.321-1.299,0.698-2.565,1.045-3.799
				c0.335-1.234,0.738-2.418,1.112-3.536c0.397-1.117,0.781-2.167,1.228-3.11c0.385-0.961,0.887-1.788,1.294-2.524
				c0.426-0.73,0.909-1.305,1.25-1.796c0.401-0.456,0.76-0.775,0.98-1.006c0.227-0.225,0.348-0.345,0.348-0.345
				s-0.363,0.573-0.997,1.576c-0.243,0.543-0.586,1.164-0.893,1.919c-0.279,0.772-0.629,1.613-0.901,2.586
				c-0.313,0.951-0.564,2.019-0.869,3.13c-0.266,1.129-0.546,2.32-0.836,3.551c-0.293,1.233-0.554,2.523-0.874,3.823
				c-0.318,1.304-0.642,2.628-0.965,3.953c-0.36,1.319-0.719,2.638-1.116,3.93c-0.362,1.299-0.838,2.546-1.256,3.763
				c-0.417,1.218-0.936,2.358-1.376,3.452c-0.481,1.08-0.984,2.081-1.435,3.005c-0.487,0.915-0.974,1.732-1.392,2.456
				c-0.397,0.739-0.852,1.304-1.179,1.805C308.399,608.045,307.992,608.596,307.992,608.596z"/>
		</g>
	</g>
	<g>
		<g>
			<g>
				<path fill="#B07757" d="M387.964,505.108c3.323-7.05,7.038-14.127,12.773-19.532c6.619-6.239,14.358-4.526,20.993,0.645
					c10.425,8.126,13.754,24.294,9.921,36.555c-0.485,1.553,1.944,2.212,2.426,0.669c4.323-13.831,0.019-31.37-11.947-40.076
					c-6.303-4.585-13.185-6.102-20.098-1.944c-7.836,4.714-12.51,14.501-16.241,22.413
					C385.103,505.297,387.272,506.576,387.964,505.108L387.964,505.108z"/>
			</g>
		</g>
		<g>
			<g>
				<path fill="#B07757" d="M331.479,485.866c5.221-26.982,38.656-37.682,62.728-35.551c15.603,1.382,28.494,9.558,36.967,22.707
					c9.598,14.894,10.253,33.697,10.284,50.846c0.003,1.623,2.519,1.623,2.516,0c-0.034-18.39-1.181-37.456-11.422-53.349
					c-8.524-13.228-21.864-20.695-37.227-22.602c-25.326-3.143-60.835,9.174-66.273,37.279
					C328.746,486.783,331.171,487.458,331.479,485.866L331.479,485.866z"/>
			</g>
		</g>
		<g>
			<path fill="#B07757" d="M334.11,476.628c0,0-10.798,8.208-15.491,21.852c-4.693,13.644,1.099,23.159,1.099,23.159
				s16.815-8.401,20.189-23.787C341.93,488.627,334.11,476.628,334.11,476.628z"/>
		</g>
		<g>
			<path fill="#FFFFFF" d="M320.54,519.34c0,0,0.287-0.532,0.815-1.443c0.243-0.466,0.436-1.067,0.723-1.705
				c0.265-0.65,0.463-1.457,0.754-2.279c0.22-0.856,0.459-1.783,0.712-2.763c0.207-0.997,0.46-2.03,0.67-3.124
				c0.232-1.085,0.429-2.216,0.652-3.365c0.233-1.144,0.436-2.319,0.649-3.49c0.229-1.172,0.457-2.344,0.682-3.497
				c0.219-1.159,0.478-2.288,0.725-3.389c0.235-1.1,0.509-2.157,0.786-3.157c0.247-1.004,0.568-1.941,0.848-2.802
				c0.27-0.865,0.623-1.636,0.891-2.321c0.307-0.678,0.632-1.245,0.874-1.714c0.284-0.454,0.56-0.778,0.721-1.007
				c0.168-0.225,0.258-0.345,0.258-0.345s-0.224,0.553-0.616,1.52c-0.141,0.498-0.312,1.102-0.508,1.795
				c-0.14,0.714-0.344,1.493-0.502,2.369c-0.153,0.878-0.338,1.817-0.497,2.828c-0.163,1.008-0.335,2.072-0.513,3.172
				c-0.194,1.096-0.337,2.249-0.553,3.402c-0.203,1.16-0.41,2.339-0.617,3.518c-0.239,1.176-0.466,2.352-0.725,3.51
				c-0.234,1.16-0.546,2.288-0.834,3.383c-0.261,1.099-0.644,2.139-0.952,3.13c-0.339,0.987-0.717,1.905-1.07,2.744
				c-0.411,0.827-0.745,1.583-1.149,2.226c-0.415,0.636-0.756,1.195-1.088,1.6C320.962,518.909,320.54,519.34,320.54,519.34z"/>
		</g>
		<g>
			<g>
				<path fill="#B07757" d="M294.337,459.447c9.457-7.041,21.243-11.436,32.413-14.835c15.458-4.703,32.777-7.074,48.369-1.73
					c15.246,5.226,24.992,20.137,31.613,33.983c6.669,13.948,11.09,29.891,11.221,45.41c0.014,1.622,2.53,1.623,2.516,0
					c-0.132-15.652-4.6-31.229-10.98-45.42c-6.429-14.301-16.246-28.769-31.003-35.333c-15.1-6.717-33.045-4.472-48.527-0.433
					c-12.629,3.294-26.318,8.313-36.891,16.185C291.781,458.231,293.034,460.417,294.337,459.447L294.337,459.447z"/>
			</g>
		</g>
		<g>
			<path fill="#B07757" d="M296.691,454.803c0,0-13.383,0.301-24.768,8.687c-11.385,8.386-11.898,19.627-11.898,19.627
				s18.419,3.121,29.686-7.477C296.467,469.286,296.691,454.803,296.691,454.803z"/>
		</g>
		<g>
			<path fill="#FFFFFF" d="M261.97,481.724c0,0,0.531-0.264,1.471-0.695c0.458-0.237,0.949-0.614,1.537-0.965
				c0.576-0.375,1.186-0.917,1.879-1.416c0.653-0.569,1.361-1.186,2.109-1.838c0.721-0.692,1.498-1.387,2.273-2.156
				c0.789-0.749,1.574-1.557,2.39-2.364c0.822-0.797,1.636-1.638,2.457-2.468c0.834-0.823,1.667-1.646,2.488-2.457
				c0.819-0.819,1.653-1.589,2.464-2.344c0.8-0.762,1.608-1.465,2.387-2.122c0.757-0.676,1.538-1.256,2.244-1.797
				c0.699-0.551,1.417-0.975,2.015-1.379c0.627-0.376,1.209-0.649,1.666-0.892c0.484-0.206,0.89-0.307,1.149-0.401
				c0.262-0.085,0.402-0.13,0.402-0.13s-0.49,0.319-1.349,0.877c-0.391,0.323-0.866,0.715-1.41,1.165
				c-0.509,0.5-1.107,1.015-1.72,1.637c-0.61,0.626-1.279,1.284-1.968,2.014c-0.69,0.727-1.417,1.494-2.17,2.287
				c-0.764,0.781-1.516,1.637-2.329,2.452c-0.807,0.828-1.626,1.669-2.445,2.51c-0.845,0.821-1.679,1.649-2.531,2.443
				c-0.832,0.811-1.71,1.551-2.552,2.278c-0.82,0.746-1.711,1.373-2.511,2.003c-0.823,0.611-1.643,1.139-2.396,1.62
				c-0.796,0.436-1.489,0.858-2.177,1.149c-0.694,0.277-1.285,0.534-1.78,0.67C262.553,481.62,261.97,481.724,261.97,481.724z"/>
		</g>
	</g>
	<g opacity="0.6">
		<path fill="#E0D3D5" d="M395.972,595.562c-33.591,0-60.822,5.09-60.822,11.369c0,1.397,1.354,2.734,3.819,3.97
			c-8.437-0.544-17.304-0.543-23.232-0.242c-11.894,0.603-24.254,0.758-36.381,5.306c-12.127,4.548-31.834,4.548-32.592,8.337
			c-1.486,7.432,24.254,0,33.35-0.758c9.095-0.758,43.203-8.337,52.298-8.337c6.886,0,23.758,1.737,27.935,0.937
			c10.014,1.355,22.316,2.157,35.625,2.157c33.591,0,60.822-5.09,60.822-11.369C456.794,600.652,429.563,595.562,395.972,595.562z"
			/>
	</g>
	<g>
		<path fill="#F3ACB6" d="M345.059,519.593c5.948,3.304,28.802,7.041,52.484,7.041s53.124-5.12,56.965-7.041
			s-8.321,79.366-14.721,85.767c-10.881,10.881-74.566,9.921-84.487,0C347.606,597.666,339.299,516.393,345.059,519.593z"/>
	</g>
	<g>
		<g>
			<path fill="#FFFFFF" d="M342.504,537.961c16.632,7.514,37.088,8.143,55.01,8.465c19.297,0.346,38.871-2.73,57.328-8.338
				c1.548-0.47,0.888-2.899-0.669-2.426c-17.037,5.176-34.983,8.147-52.79,8.276c-10.513,0.076-21.057-0.617-31.488-1.903
				c-8.769-1.081-18.01-2.582-26.122-6.246C342.308,535.125,341.027,537.293,342.504,537.961L342.504,537.961z"/>
		</g>
	</g>
	<g>
		<path fill="#B07757" d="M348.609,507.487c0,0-15.118,3.413-26.173,15.206c-11.055,11.794-9.141,24.205-9.141,24.205
			s21.592-0.832,32.022-15.017C351.571,523.376,348.609,507.487,348.609,507.487z"/>
	</g>
	<g>
		<path fill="#FFFFFF" d="M317.435,544.004c0,0,0.433-0.481,1.212-1.298c0.394-0.405,0.8-0.954,1.312-1.529
			c0.511-0.57,1.02-1.303,1.628-2.033c0.577-0.762,1.202-1.587,1.863-2.459c0.643-0.888,1.321-1.824,2.023-2.793
			c1.39-1.952,2.873-4.035,4.355-6.117c0.752-1.038,1.504-2.076,2.244-3.097c0.731-1.031,1.494-2.013,2.214-2.98
			c1.447-1.926,2.862-3.688,4.125-5.157c1.255-1.477,2.398-2.633,3.217-3.415c0.857-0.753,1.354-1.159,1.354-1.159
			s-0.383,0.517-1.053,1.423c-0.319,0.461-0.705,1.021-1.149,1.663c-0.431,0.65-0.917,1.384-1.447,2.184
			c-1.055,1.606-2.285,3.48-3.603,5.487c-0.676,0.992-1.343,2.045-2.073,3.076c-0.724,1.038-1.459,2.092-2.195,3.146
			c-0.765,1.036-1.53,2.071-2.284,3.091c-0.748,1.024-1.552,1.985-2.305,2.932c-0.748,0.951-1.542,1.819-2.265,2.662
			c-0.756,0.821-1.464,1.596-2.162,2.277c-0.707,0.676-1.321,1.308-1.949,1.814c-0.612,0.511-1.133,0.968-1.595,1.289
			C317.977,543.651,317.435,544.004,317.435,544.004z"/>
	</g>
	<g>
		<path fill="#B07757" d="M390.07,502.684c0,0-13.162,3.083-22.786,13.736c-9.625,10.653-7.958,21.865-7.958,21.865
			s18.798-0.751,27.878-13.565C392.648,517.037,390.07,502.684,390.07,502.684z"/>
	</g>
	<g>
		<path fill="#FFFFFF" d="M362.929,535.67c0,0,0.372-0.442,1.044-1.192c0.339-0.373,0.686-0.872,1.127-1.396
			c0.438-0.521,0.875-1.187,1.398-1.85c0.496-0.691,1.033-1.44,1.602-2.231c0.554-0.803,1.139-1.65,1.744-2.527
			c1.203-1.762,2.487-3.642,3.77-5.521c0.654-0.935,1.309-1.87,1.953-2.79c0.635-0.93,1.305-1.812,1.934-2.683
			c1.265-1.734,2.508-3.319,3.623-4.639c1.106-1.328,2.118-2.368,2.845-3.07c0.76-0.677,1.203-1.04,1.203-1.04
			s-0.326,0.472-0.897,1.299c-0.272,0.419-0.601,0.928-0.98,1.512c-0.368,0.589-0.783,1.254-1.236,1.98
			c-0.894,1.46-1.948,3.151-3.095,4.961c-0.584,0.895-1.157,1.847-1.791,2.776c-0.628,0.936-1.265,1.887-1.903,2.838
			c-0.667,0.934-1.333,1.868-1.989,2.787c-0.651,0.924-1.357,1.789-2.015,2.643c-0.653,0.858-1.353,1.641-1.987,2.4
			c-0.662,0.742-1.289,1.439-1.904,2.054c-0.623,0.611-1.168,1.178-1.723,1.636c-0.542,0.462-1.006,0.872-1.415,1.162
			C363.413,535.354,362.929,535.67,362.929,535.67z"/>
	</g>
	<g>
		<g>
			<path fill="#B07757" d="M398.878,569.98c5.897-13.906,13.947-26.745,20.499-40.333c3.845-7.974,9.786-19.932,4.442-28.508
				c-7.613-12.216-23.003,21.43-22.531,28.035c0.115,1.609,2.632,1.62,2.516,0c-0.439-6.144,4.055-13.564,6.959-18.661
				c1.808-3.172,3.957-6.579,6.986-8.721c3.867-2.735,5.416,3.485,5.579,6.239c0.569,9.63-5.786,19.962-10.054,28.15
				c-5.626,10.793-11.811,21.306-16.57,32.529C396.079,570.185,398.246,571.469,398.878,569.98L398.878,569.98z"/>
		</g>
	</g>
	<g>
		<g>
			<path fill="#B07757" d="M370.603,536.428c4.333-13.5,8.498-27.118,14.163-40.134c2.128-4.888,4.576-9.662,7.663-14.017
				c2.439-3.441,2.197-1.729,2.386,1.603c0.436,7.662-0.803,15.58-1.952,23.128c-0.958,6.295-1.74,13.355-4.289,19.258
				c-0.636,1.473,1.531,2.756,2.173,1.27c3.169-7.339,4.038-16.028,5.125-23.868c1.004-7.239,3.18-16.91,0.811-24.089
				c-2.482-7.521-10.257,7.57-10.985,8.941c-7.852,14.785-12.429,31.373-17.521,47.239
				C367.679,537.308,370.109,537.967,370.603,536.428L370.603,536.428z"/>
		</g>
	</g>
	<g>
		<path fill="#B07757" d="M372.132,531.416c0,0-14.049,2.364-25.06,14.577c-11.011,12.213-10.252,26.396-10.252,26.396
			s19.745,1.182,30.376-13.789C373.571,549.624,372.132,531.416,372.132,531.416z"/>
	</g>
	<g>
		<path fill="#FFFFFF" d="M341.113,566.943c0,0,0.499-0.393,1.389-1.054c0.454-0.318,0.988-0.731,1.562-1.228
			c0.578-0.499,1.253-1.003,1.933-1.654c0.685-0.639,1.448-1.296,2.196-2.063c0.379-0.375,0.769-0.761,1.167-1.156
			c0.385-0.408,0.779-0.824,1.179-1.248c0.823-0.823,1.581-1.765,2.413-2.662c0.807-0.921,1.611-1.872,2.396-2.839
			c1.602-1.91,3.115-3.898,4.561-5.748c1.43-1.871,2.765-3.618,3.909-5.115c1.148-1.501,2.138-2.737,2.846-3.59
			c0.716-0.849,1.142-1.319,1.142-1.319s-0.294,0.561-0.81,1.542c-0.52,0.977-1.263,2.371-2.218,4.01
			c-0.94,1.648-2.106,3.532-3.43,5.507c-0.683,0.973-1.349,2.008-2.119,2.995c-0.741,1.007-1.534,2.002-2.328,2.997
			c-1.644,1.944-3.343,3.852-5.112,5.473c-0.439,0.407-0.858,0.821-1.294,1.198c-0.446,0.367-0.883,0.725-1.308,1.074
			c-0.827,0.722-1.701,1.297-2.482,1.851c-0.76,0.575-1.561,0.99-2.225,1.391c-0.338,0.194-0.646,0.388-0.944,0.54
			c-0.303,0.141-0.581,0.27-0.832,0.387C341.697,566.695,341.113,566.943,341.113,566.943z"/>
	</g>
	<g>
		<path fill="#B07757" d="M403.529,556.234c0,0-11.044,5.575-17.134,19.256c-6.09,13.681-1.948,26.241-1.948,26.241
			s16.637-3.787,21.73-19.853C409.229,572.244,403.529,556.234,403.529,556.234z"/>
	</g>
	<g>
		<path fill="#FFFFFF" d="M388.058,599.323c0,0,0.217-0.578,0.625-1.573c0.196-0.499,0.481-1.094,0.721-1.794
			c0.256-0.691,0.546-1.471,0.861-2.322c0.287-0.862,0.597-1.795,0.926-2.783c0.297-0.996,0.61-2.047,0.934-3.134
			c0.61-2.184,1.24-4.522,1.809-6.887c0.3-1.182,0.6-2.363,0.895-3.526c0.279-1.17,0.614-2.31,0.918-3.422
			c0.293-1.112,0.653-2.179,0.983-3.187c0.352-1.008,0.692-1.954,1.09-2.807c0.343-0.867,0.786-1.617,1.151-2.281
			c0.375-0.662,0.81-1.183,1.114-1.627c0.355-0.417,0.68-0.704,0.876-0.913c0.203-0.203,0.311-0.312,0.311-0.312
			s-0.31,0.525-0.852,1.445c-0.205,0.495-0.499,1.059-0.756,1.745c-0.237,0.698-0.529,1.462-0.758,2.341
			c-0.265,0.859-0.471,1.824-0.731,2.826c-0.225,1.018-0.462,2.091-0.707,3.202c-0.251,1.111-0.47,2.274-0.748,3.445
			c-0.275,1.175-0.554,2.369-0.834,3.562c-0.314,1.189-0.627,2.378-0.974,3.543c-0.315,1.172-0.736,2.297-1.103,3.395
			c-0.364,1.099-0.826,2.128-1.214,3.115c-0.423,0.977-0.872,1.88-1.272,2.715c-0.43,0.828-0.866,1.567-1.238,2.221
			c-0.354,0.667-0.758,1.179-1.051,1.631C388.423,598.826,388.058,599.323,388.058,599.323z"/>
	</g>
	<g>
		<path fill="#FFFEF7" d="M963.026,545.737c0,5.611-4.642,10.16-10.369,10.16H516.913c-5.727,0-10.369-4.549-10.369-10.16V238.421
			c0-5.611,4.642-10.16,10.369-10.16h435.745c5.727,0,10.369,4.549,10.369,10.16V545.737z"/>
	</g>
	<g>
		<rect x="521.913" y="245.297" fill="#F3ACB6" width="425.743" height="275.119"/>
	</g>
	<g>
		<path fill="#FFFEF7" d="M796.264,593.516c0,3.82-4.129,6.916-9.222,6.916H682.528c-5.093,0-9.222-3.097-9.222-6.916l0,0
			c0-3.82,4.129-6.916,9.222-6.916h104.515C792.135,586.599,796.264,589.696,796.264,593.516L796.264,593.516z"/>
	</g>
	<g>
		<circle fill="#FFFFFF" cx="400.548" cy="126.823" r="71.464"/>
	</g>
	<g>
		<path fill="#B6C4D3" d="M400.548,185.741c-32.488,0-58.918-26.43-58.918-58.918s26.43-58.918,58.918-58.918
			s58.918,26.43,58.918,58.918S433.036,185.741,400.548,185.741z M400.548,68.912c-31.932,0-57.911,25.979-57.911,57.911
			s25.979,57.911,57.911,57.911s57.911-25.979,57.911-57.911S432.48,68.912,400.548,68.912z"/>
	</g>
	<g>
		<circle fill="#B07757" cx="400.548" cy="126.823" r="6.525"/>
	</g>
	<g>
		<circle fill="#F3ACB6" cx="318.267" cy="760.916" r="8.256"/>
	</g>
	<g>
		<circle fill="#F3ACB6" cx="318.267" cy="860.181" r="8.256"/>
	</g>
	<g>
		<circle fill="#F3ACB6" cx="318.267" cy="959.447" r="8.256"/>
	</g>
	<g>
		<path fill="#B07757" d="M425.355,160.75c-0.306,0-0.607-0.138-0.805-0.401l-24.806-32.92c-0.288-0.381-0.267-0.913,0.05-1.271
			l28.535-32.326c0.366-0.417,1.004-0.457,1.42-0.088c0.417,0.368,0.457,1.004,0.088,1.42l-27.991,31.711l24.312,32.265
			c0.334,0.444,0.246,1.075-0.198,1.41C425.779,160.684,425.566,160.75,425.355,160.75z"/>
	</g>
	<g>
		<path fill="#FFFEF7" d="M584.963,618.245c18.117,0,286.851,0,300.439,0c13.588,0,30.195,34.724,12.078,34.724
			c-18.117,0-309.497,0-326.105,0S569.865,618.245,584.963,618.245z"/>
	</g>
	<g>
		<path fill="#FFFEF7" d="M921.912,650.956c18.117,0,30.195,0,40.763,0c10.568,0,1.94-23.335-20.707-23.335
			C919.323,627.622,911.344,650.956,921.912,650.956z"/>
	</g>
	<g>
		<rect x="162.009" y="682.661" fill="#FFFEF7" width="1093.054" height="18.62"/>
	</g>
	<g>
		<path fill="#FFFEF7" d="M1191.653,593.997c0,4.253-20.616,15.19-46.047,15.19s-46.047-9.721-46.047-15.19
			c0-19.127,20.616-34.632,46.047-34.632S1191.653,574.87,1191.653,593.997z"/>
	</g>
	<g>
		<path fill="#FFFEF7" d="M1093.097,358.48c-3.201,4.969-27.343,7.495-46.969-5.149c-19.626-12.644-28.219-34.252-24.104-40.64
			c14.396-22.345,41.977-30.21,61.603-17.565S1107.494,336.135,1093.097,358.48z"/>
	</g>
	<g>
		<path fill="#B07757" d="M1086.98,358.056c0,0-18.231,5.916-39.444-8.301c-21.471-14.39-23.068-29.442-23.068-29.442
			s16.366-6.464,37.898,7.082C1084.616,341.391,1086.98,358.056,1086.98,358.056z"/>
	</g>
	<g>
		<polygon fill="#FFFFFF" points="1156.045,567.115 1148.755,563.693 1219.311,413.42 1086.222,329.374 1090.521,322.566 
			1229.621,410.407 		"/>
	</g>
	<g>
		<circle fill="#FFFEF7" cx="1224.868" cy="412.92" r="13.588"/>
	</g>
	<g>
		<path fill="#F3ACB6" d="M1067.169,595.463v32.289c0,8.393-9.811,15.196-23.175,15.196c-12.336,0-22.955-6.804-22.955-15.196
			v-32.289H1067.169z"/>
	</g>
	<g>
		<ellipse fill="#B07757" cx="1044.331" cy="596.89" rx="22.288" ry="6.585"/>
		<path fill="#FFFFFF" d="M1044.331,604.985c-11.826,0-23.797-2.781-23.797-8.095c0-5.315,11.971-8.096,23.797-8.096
			s23.797,2.781,23.797,8.096C1068.128,602.204,1056.157,604.985,1044.331,604.985z M1044.331,591.814
			c-13.444,0-20.778,3.353-20.778,5.076c0,1.722,7.334,5.075,20.778,5.075s20.778-3.353,20.778-5.075
			C1065.109,595.167,1057.775,591.814,1044.331,591.814z"/>
	</g>
	<g>
		<g>
			<path fill="#FFFEF7" d="M1063.253,632.118c8.559,1.134,15.203-4.999,15.269-13.535c0.07-9.032-7.883-13.613-16.072-12.109
				c-3.189,0.586-1.834,5.436,1.338,4.853c12.847-2.36,12.502,17.486-0.535,15.758
				C1060.043,626.66,1060.084,631.698,1063.253,632.118L1063.253,632.118z"/>
		</g>
	</g>
	<g>
		<path fill="#FFFEF7" d="M921.758,511.97H547.812V265.197c0-4.597,3.803-8.323,8.494-8.323h356.957
			c4.691,0,8.494,3.726,8.494,8.323V511.97z"/>
	</g>
	<g>
		<circle fill="#ABD4D1" cx="560.548" cy="270.997" r="5.535"/>
	</g>
	<g>
		<circle fill="#F3E3DF" cx="574.575" cy="270.997" r="5.535"/>
	</g>
	<g>
		<circle fill="#B07757" cx="589.169" cy="270.997" r="5.535"/>
	</g>
	<g opacity="0.4">
		<rect x="554.444" y="282.477" fill="#F3ACB6" width="361.35" height="22.144"/>
	</g>
	<g>
		<rect x="554.444" y="317.706" fill="#ABD4D1" width="100.097" height="188.224"/>
	</g>
	<g>
		<rect x="660.534" y="317.706" fill="#F3ACB6" width="131.857" height="16.105"/>
	</g>
	<g>
		<rect x="798.028" y="317.706" fill="#F3ACB6" width="116.759" height="71.465"/>
	</g>
	<g>
		<rect x="660.534" y="345.386" fill="#B07757" width="98.418" height="16.105"/>
	</g>
	<g opacity="0.4">
		<rect x="660.534" y="373.066" fill="#F3ACB6" width="112.196" height="16.105"/>
	</g>
	<g>
		<rect x="660.534" y="413.328" fill="#B07757" width="105.687" height="16.105"/>
	</g>
	<g>
		<rect x="798.028" y="413.328" fill="#B07757" width="116.759" height="71.465"/>
	</g>
	<g>
		<rect x="660.534" y="441.008" fill="#ABD4D1" width="98.418" height="16.105"/>
	</g>
	<g>
		<rect x="660.534" y="468.688" fill="#F3ACB6" width="112.196" height="16.105"/>
	</g>
</g>
</svg>
